Rokkitt-Regular.ufo
<glyph name="exclam" format="1">
  <advance width="273"/>
  <unicode hex="0021"/>
  <outline>
    <contour>
      <point x="116" y="352" type="line"/>
      <point x="163" y="352" type="line"/>
      <point x="189" y="792" type="line"/>
      <point x="189" y="1179" type="line"/>
      <point x="88" y="1179" type="line"/>
      <point x="88" y="792" type="line"/>
    </contour>
    <contour>
      <point x="138" y="-14" type="curve" smooth="yes"/>
      <point x="184" y="-14"/>
      <point x="218" y="17"/>
      <point x="218" y="59" type="curve" smooth="yes"/>
      <point x="218" y="100"/>
      <point x="184" y="131"/>
      <point x="138" y="131" type="curve" smooth="yes"/>
      <point x="95" y="131"/>
      <point x="62" y="100"/>
      <point x="62" y="59" type="curve" smooth="yes"/>
      <point x="62" y="17"/>
      <point x="95" y="-14"/>
    </contour>
  </outline>
</glyph>
<glyph name="numbersign" format="1">
  <advance width="1025"/>
  <unicode hex="0023"/>
  <outline>
    <contour>
      <point x="188" y="-4" type="line"/>
      <point x="276" y="-4" type="line"/>
      <point x="315" y="370" type="line"/>
      <point x="654" y="370" type="line"/>
      <point x="614" y="-4" type="line"/>
      <point x="702" y="-4" type="line"/>
      <point x="741" y="370" type="line"/>
      <point x="935" y="370" type="line"/>
      <point x="936" y="438" type="line"/>
      <point x="751" y="438" type="line"/>
      <point x="785" y="774" type="line"/>
      <point x="964" y="774" type="line"/>
      <point x="965" y="842" type="line"/>
      <point x="794" y="842" type="line"/>
      <point x="830" y="1179" type="line"/>
      <point x="743" y="1179" type="line"/>
      <point x="706" y="842" type="line"/>
      <point x="367" y="842" type="line"/>
      <point x="404" y="1179" type="line"/>
      <point x="316" y="1179" type="line"/>
      <point x="280" y="842" type="line"/>
      <point x="96" y="842" type="line"/>
      <point x="94" y="774" type="line"/>
      <point x="271" y="774" type="line"/>
      <point x="238" y="438" type="line"/>
      <point x="66" y="438" type="line"/>
      <point x="64" y="370" type="line"/>
      <point x="227" y="370" type="line"/>
    </contour>
    <contour>
      <point x="324" y="438" type="line"/>
      <point x="359" y="774" type="line"/>
      <point x="698" y="774" type="line"/>
      <point x="663" y="438" type="line"/>
    </contour>
  </outline>
</glyph>
<glyph name="dollar" format="1">
  <advance width="1105"/>
  <unicode hex="0024"/>
  <outline>
    <component base="S" xOffset="-21"/>
    <contour>
      <point x="537" y="-182" type="line"/>
      <point x="592" y="-182" type="line"/>
      <point x="592" y="1340" type="line"/>
      <point x="537" y="1340" type="line"/>
    </contour>
  </outline>
</glyph>
<glyph name="percent" format="1">
  <advance width="1635"/>
  <unicode hex="0025"/>
  <outline>
    <contour>
      <point x="401" y="679" type="curve" smooth="yes"/>
      <point x="276" y="679"/>
      <point x="186" y="771"/>
      <point x="186" y="898" type="curve" smooth="yes"/>
      <point x="186" y="1023"/>
      <point x="276" y="1114"/>
      <point x="401" y="1114" type="curve" smooth="yes"/>
      <point x="528" y="1114"/>
      <point x="619" y="1023"/>
      <point x="619" y="898" type="curve" smooth="yes"/>
      <point x="619" y="771"/>
      <point x="528" y="679"/>
    </contour>
    <contour>
      <point x="401" y="616" type="curve" smooth="yes"/>
      <point x="571" y="616"/>
      <point x="693" y="734"/>
      <point x="693" y="898" type="curve" smooth="yes"/>
      <point x="693" y="1058"/>
      <point x="571" y="1175"/>
      <point x="401" y="1175" type="curve" smooth="yes"/>
      <point x="233" y="1175"/>
      <point x="111" y="1058"/>
      <point x="111" y="898" type="curve" smooth="yes"/>
      <point x="111" y="734"/>
      <point x="233" y="616"/>
    </contour>
    <contour>
      <point x="339" y="-47" type="line"/>
      <point x="1363" y="1190" type="line"/>
      <point x="1315" y="1229" type="line"/>
      <point x="287" y="-1" type="line"/>
    </contour>
    <contour>
      <point x="1248" y="41" type="curve" smooth="yes"/>
      <point x="1122" y="41"/>
      <point x="1032" y="133"/>
      <point x="1032" y="260" type="curve" smooth="yes"/>
      <point x="1032" y="385"/>
      <point x="1122" y="476"/>
      <point x="1248" y="476" type="curve" smooth="yes"/>
      <point x="1375" y="476"/>
      <point x="1465" y="385"/>
      <point x="1465" y="260" type="curve" smooth="yes"/>
      <point x="1465" y="133"/>
      <point x="1375" y="41"/>
    </contour>
    <contour>
      <point x="1248" y="-22" type="curve" smooth="yes"/>
      <point x="1418" y="-22"/>
      <point x="1540" y="96"/>
      <point x="1540" y="260" type="curve" smooth="yes"/>
      <point x="1540" y="420"/>
      <point x="1418" y="537"/>
      <point x="1248" y="537" type="curve" smooth="yes"/>
      <point x="1080" y="537"/>
      <point x="958" y="420"/>
      <point x="958" y="260" type="curve" smooth="yes"/>
      <point x="958" y="96"/>
      <point x="1080" y="-22"/>
    </contour>
  </outline>
</glyph>
<glyph name="parenleft" format="1">
  <advance width="533"/>
  <unicode hex="0028"/>
  <outline>
    <contour>
      <point x="488" y="-118" type="curve"/>
      <point x="489" y="-55" type="line"/>
      <point x="302" y="30"/>
      <point x="209" y="280"/>
      <point x="209" y="529" type="curve" smooth="yes"/>
      <point x="209" y="779"/>
      <point x="302" y="1028"/>
      <point x="489" y="1113" type="curve"/>
      <point x="488" y="1174" type="line"/>
      <point x="227" y="1076"/>
      <point x="96" y="801"/>
      <point x="96" y="527" type="curve" smooth="yes"/>
      <point x="96" y="252"/>
      <point x="227" y="-21"/>
    </contour>
  </outline>
</glyph>
<glyph name="asterisk" format="1">
  <advance width="934"/>
  <unicode hex="002A"/>
  <outline>
    <contour>
      <point x="274" y="412" type="line"/>
      <point x="467" y="748" type="line"/>
      <point x="660" y="412" type="line"/>
      <point x="765" y="489" type="line"/>
      <point x="508" y="776" type="line"/>
      <point x="883" y="864" type="line"/>
      <point x="844" y="988" type="line"/>
      <point x="489" y="821" type="line"/>
      <point x="532" y="1207" type="line"/>
      <point x="402" y="1207" type="line"/>
      <point x="445" y="821" type="line"/>
      <point x="90" y="988" type="line"/>
      <point x="51" y="864" type="line"/>
      <point x="425" y="776" type="line"/>
      <point x="168" y="489" type="line"/>
    </contour>
  </outline>
</glyph>
<glyph name="slash" format="1">
  <advance width="447"/>
  <unicode hex="002F"/>
  <outline>
    <contour>
      <point x="-19" y="-16" type="line"/>
      <point x="57" y="-29" type="line"/>
      <point x="457" y="1187" type="line"/>
      <point x="386" y="1200" type="line"/>
    </contour>
  </outline>
</glyph>
<glyph name="zero" format="1">
  <advance width="1094"/>
  <unicode hex="0030"/>
  <outline>
    <contour>
      <point x="546" y="49" type="curve" smooth="yes"/>
      <point x="339" y="47"/>
      <point x="224" y="230"/>
      <point x="224" y="568" type="curve" smooth="yes"/>
      <point x="224" y="914"/>
      <point x="339" y="1103"/>
      <point x="546" y="1103" type="curve" smooth="yes"/>
      <point x="755" y="1103"/>
      <point x="870" y="914"/>
      <point x="870" y="568" type="curve" smooth="yes"/>
      <point x="870" y="232"/>
      <point x="755" y="49"/>
    </contour>
    <contour>
      <point x="546" y="-22" type="curve" smooth="yes"/>
      <point x="821" y="-22"/>
      <point x="967" y="186"/>
      <point x="967" y="568" type="curve" smooth="yes"/>
      <point x="967" y="951"/>
      <point x="821" y="1174"/>
      <point x="546" y="1174" type="curve" smooth="yes"/>
      <point x="273" y="1174"/>
      <point x="127" y="950"/>
      <point x="127" y="568" type="curve" smooth="yes"/>
      <point x="127" y="187"/>
      <point x="273" y="-22"/>
    </contour>
  </outline>
</glyph>
<glyph name="two" format="1">
  <advance width="988"/>
  <unicode hex="0032"/>
  <outline>
    <contour>
      <point x="124" y="0" type="line"/>
      <point x="856" y="0" type="line"/>
      <point x="855" y="288" type="line"/>
      <point x="775" y="288" type="line"/>
      <point x="774" y="77" type="line"/>
      <point x="242" y="77" type="line"/>
      <point x="576" y="411" type="line" smooth="yes"/>
      <point x="738" y="574"/>
      <point x="852" y="707"/>
      <point x="852" y="846" type="curve" smooth="yes"/>
      <point x="852" y="1046"/>
      <point x="718" y="1174"/>
      <point x="493" y="1174" type="curve" smooth="yes"/>
      <point x="271" y="1174"/>
      <point x="131" y="1044"/>
      <point x="131" y="842" type="curve" smooth="yes"/>
      <point x="131" y="806"/>
      <point x="138" y="761"/>
      <point x="151" y="719" type="curve"/>
      <point x="238" y="719" type="line"/>
      <point x="228" y="765"/>
      <point x="222" y="806"/>
      <point x="222" y="833" type="curve" smooth="yes"/>
      <point x="222" y="997"/>
      <point x="328" y="1093"/>
      <point x="494" y="1093" type="curve" smooth="yes"/>
      <point x="664" y="1093"/>
      <point x="752" y="991"/>
      <point x="754" y="845" type="curve" smooth="yes"/>
      <point x="756" y="739"/>
      <point x="663" y="622"/>
      <point x="514" y="472" type="curve" smooth="yes"/>
      <point x="124" y="79" type="line"/>
    </contour>
  </outline>
</glyph>
<glyph name="three" format="1">
  <advance width="1000"/>
  <unicode hex="0033"/>
  <outline>
    <contour>
      <point x="487" y="-21" type="curve" smooth="yes"/>
      <point x="742" y="-21"/>
      <point x="890" y="111"/>
      <point x="890" y="334" type="curve" smooth="yes"/>
      <point x="890" y="488"/>
      <point x="788" y="581"/>
      <point x="611" y="607" type="curve"/>
      <point x="774" y="632"/>
      <point x="867" y="728"/>
      <point x="867" y="873" type="curve" smooth="yes"/>
      <point x="867" y="1060"/>
      <point x="720" y="1174"/>
      <point x="474" y="1174" type="curve" smooth="yes"/>
      <point x="289" y="1174"/>
      <point x="150" y="1088"/>
      <point x="91" y="941" type="curve"/>
      <point x="167" y="906" type="line"/>
      <point x="215" y="1027"/>
      <point x="325" y="1097"/>
      <point x="473" y="1097" type="curve" smooth="yes"/>
      <point x="661" y="1097"/>
      <point x="771" y="1012"/>
      <point x="771" y="872" type="curve" smooth="yes"/>
      <point x="771" y="725"/>
      <point x="659" y="643"/>
      <point x="416" y="643" type="curve"/>
      <point x="416" y="567" type="line"/>
      <point x="664" y="567"/>
      <point x="789" y="488"/>
      <point x="791" y="333" type="curve" smooth="yes"/>
      <point x="794" y="158"/>
      <point x="681" y="57"/>
      <point x="488" y="57" type="curve" smooth="yes"/>
      <point x="342" y="57"/>
      <point x="231" y="127"/>
      <point x="172" y="255" type="curve"/>
      <point x="96" y="209" type="line"/>
      <point x="154" y="65"/>
      <point x="298" y="-21"/>
    </contour>
  </outline>
</glyph>
<glyph name="four" format="1">
  <advance width="970"/>
  <unicode hex="0034"/>
  <outline>
    <contour>
      <point x="395" y="0" type="line"/>
      <point x="824" y="0" type="line"/>
      <point x="824" y="109" type="line"/>
      <point x="686" y="109" type="line"/>
      <point x="686" y="345" type="line"/>
      <point x="875" y="345" type="line"/>
      <point x="875" y="452" type="line"/>
      <point x="686" y="452" type="line"/>
      <point x="686" y="1152" type="line"/>
      <point x="545" y="1152" type="line"/>
      <point x="58" y="471" type="line"/>
      <point x="75" y="345" type="line"/>
      <point x="546" y="345" type="line"/>
      <point x="546" y="109" type="line"/>
      <point x="395" y="109" type="line"/>
    </contour>
    <contour>
      <point x="198" y="452" type="line"/>
      <point x="546" y="970" type="line"/>
      <point x="546" y="452" type="line"/>
    </contour>
  </outline>
</glyph>
<glyph name="seven" format="1">
  <advance width="976"/>
  <unicode hex="0037"/>
  <outline>
    <contour>
      <point x="385" y="0" type="curve"/>
      <point x="489" y="0" type="line"/>
      <point x="489" y="0"/>
      <point x="672" y="629"/>
      <point x="877" y="1084" type="curve"/>
      <point x="877" y="1152" type="line"/>
      <point x="123" y="1152" type="line"/>
      <point x="123" y="841" type="line"/>
      <point x="217" y="841" type="line"/>
      <point x="217" y="1078" type="line"/>
      <point x="766" y="1078" type="line"/>
      <point x="530" y="512"/>
      <point x="385" y="0"/>
    </contour>
  </outline>
</glyph>
<glyph name="nine" format="1">
  <advance width="885"/>
  <unicode hex="0039"/>
  <outline>
    <contour>
      <point x="372" y="-87" type="line"/>
      <point x="732" y="502" type="line"/>
      <point x="789" y="588"/>
      <point x="828" y="694"/>
      <point x="828" y="824" type="curve" smooth="yes"/>
      <point x="828" y="1031"/>
      <point x="669" y="1174"/>
      <point x="449" y="1174" type="curve" smooth="yes"/>
      <point x="213" y="1174"/>
      <point x="69" y="1029"/>
      <point x="69" y="806" type="curve" smooth="yes"/>
      <point x="69" y="593"/>
      <point x="221" y="457"/>
      <point x="427" y="457" type="curve" smooth="yes"/>
      <point x="519" y="457"/>
      <point x="615" y="502"/>
      <point x="655" y="544" type="curve"/>
      <point x="289" y="-35" type="line"/>
    </contour>
    <contour>
      <point x="439" y="529" type="curve" smooth="yes"/>
      <point x="267" y="529"/>
      <point x="162" y="640"/>
      <point x="162" y="812" type="curve" smooth="yes"/>
      <point x="162" y="985"/>
      <point x="271" y="1100"/>
      <point x="447" y="1100" type="curve" smooth="yes"/>
      <point x="621" y="1100"/>
      <point x="727" y="981"/>
      <point x="727" y="822" type="curve" smooth="yes"/>
      <point x="727" y="634"/>
      <point x="586" y="529"/>
    </contour>
  </outline>
</glyph>
<glyph name="less" format="1">
  <advance width="959"/>
  <unicode hex="003C"/>
  <outline>
    <contour>
      <point x="816" y="-43" type="line"/>
      <point x="816" y="62" type="line"/>
      <point x="74" y="578" type="line"/>
      <point x="816" y="1095" type="line"/>
      <point x="816" y="1202" type="line"/>
      <point x="-29" y="605" type="line"/>
      <point x="-29" y="549" type="line"/>
    </contour>
  </outline>
</glyph>
<glyph name="greater" format="1">
  <advance width="960"/>
  <unicode hex="003E"/>
  <outline>
    <contour>
      <point x="146" y="-43" type="line"/>
      <point x="989" y="547" type="line"/>
      <point x="989" y="607" type="line"/>
      <point x="146" y="1202" type="line"/>
      <point x="146" y="1095" type="line"/>
      <point x="887" y="578" type="line"/>
      <point x="146" y="62" type="line"/>
    </contour>
  </outline>
</glyph>
<glyph name="question" format="1">
  <advance width="707"/>
  <unicode hex="003F"/>
  <outline>
    <contour>
      <point x="285" y="300" type="curve"/>
      <point x="347" y="300" type="line"/>
      <point x="396" y="700"/>
      <point x="672" y="613"/>
      <point x="672" y="909" type="curve" smooth="yes"/>
      <point x="672" y="1084"/>
      <point x="547" y="1195"/>
      <point x="351" y="1195" type="curve" smooth="yes"/>
      <point x="174" y="1195"/>
      <point x="37" y="1125"/>
      <point x="26" y="928" type="curve"/>
      <point x="106" y="928" type="line"/>
      <point x="126" y="1069"/>
      <point x="205" y="1124"/>
      <point x="352" y="1124" type="curve" smooth="yes"/>
      <point x="497" y="1124"/>
      <point x="586" y="1041"/>
      <point x="586" y="909" type="curve" smooth="yes"/>
      <point x="586" y="659"/>
      <point x="311" y="739"/>
    </contour>
    <contour>
      <point x="315" y="-19" type="curve" smooth="yes"/>
      <point x="362" y="-19"/>
      <point x="397" y="14"/>
      <point x="397" y="57" type="curve" smooth="yes"/>
      <point x="397" y="99"/>
      <point x="362" y="132"/>
      <point x="315" y="132" type="curve" smooth="yes"/>
      <point x="270" y="132"/>
      <point x="236" y="99"/>
      <point x="236" y="57" type="curve" smooth="yes"/>
      <point x="236" y="14"/>
      <point x="270" y="-19"/>
    </contour>
  </outline>
</glyph>
<glyph name="at" format="1">
  <advance width="1415"/>
  <unicode hex="0040"/>
  <outline>
    <contour>
      <point x="771" y="-39" type="curve" smooth="yes"/>
      <point x="943" y="-39"/>
      <point x="1066" y="1"/>
      <point x="1169" y="77" type="curve"/>
      <point x="1134" y="121" type="line"/>
      <point x="1039" y="54"/>
      <point x="920" y="20"/>
      <point x="771" y="20" type="curve" smooth="yes"/>
      <point x="404" y="20"/>
      <point x="191" y="231"/>
      <point x="191" y="548" type="curve" smooth="yes"/>
      <point x="191" y="878"/>
      <point x="430" y="1123"/>
      <point x="757" y="1123" type="curve" smooth="yes"/>
      <point x="1085" y="1123"/>
      <point x="1243" y="910"/>
      <point x="1243" y="686" type="curve" smooth="yes"/>
      <point x="1243" y="435"/>
      <point x="1080" y="272"/>
      <point x="987" y="292" type="curve"/>
      <point x="940" y="297"/>
      <point x="929" y="343"/>
      <point x="958" y="474" type="curve" smooth="yes"/>
      <point x="1051" y="900" type="line"/>
      <point x="985" y="900" type="line"/>
      <point x="947" y="720" type="line"/>
      <point x="945" y="839"/>
      <point x="857" y="918"/>
      <point x="738" y="918" type="curve" smooth="yes"/>
      <point x="521" y="918"/>
      <point x="405" y="712"/>
      <point x="405" y="524" type="curve" smooth="yes"/>
      <point x="405" y="336"/>
      <point x="522" y="238"/>
      <point x="654" y="238" type="curve" smooth="yes"/>
      <point x="779" y="238"/>
      <point x="861" y="328"/>
      <point x="902" y="441" type="curve"/>
      <point x="861" y="296"/>
      <point x="910" y="249"/>
      <point x="969" y="241" type="curve" smooth="yes"/>
      <point x="1125" y="217"/>
      <point x="1303" y="431"/>
      <point x="1303" y="686" type="curve" smooth="yes"/>
      <point x="1303" y="933"/>
      <point x="1149" y="1183"/>
      <point x="761" y="1183" type="curve" smooth="yes"/>
      <point x="346" y="1183"/>
      <point x="113" y="861"/>
      <point x="113" y="550" type="curve" smooth="yes"/>
      <point x="113" y="248"/>
      <point x="323" y="-39"/>
    </contour>
    <contour>
      <point x="665" y="296" type="curve" smooth="yes"/>
      <point x="541" y="296"/>
      <point x="480" y="389"/>
      <point x="480" y="522" type="curve" smooth="yes"/>
      <point x="480" y="696"/>
      <point x="575" y="856"/>
      <point x="731" y="856" type="curve" smooth="yes"/>
      <point x="843" y="856"/>
      <point x="915" y="789"/>
      <point x="915" y="656" type="curve" smooth="yes"/>
      <point x="915" y="471"/>
      <point x="812" y="296"/>
    </contour>
  </outline>
</glyph>
<glyph name="B" format="1">
  <advance width="1188"/>
  <unicode hex="0042"/>
  <outline>
    <contour>
      <point x="523" y="1152" type="move" name="top"/>
    </contour>
    <contour>
      <point x="652" y="1152" type="curve" smooth="yes"/>
      <point x="80" y="1152" type="line"/>
      <point x="80" y="1044" type="line"/>
      <point x="240" y="1044" type="line"/>
      <point x="240" y="108" type="line"/>
      <point x="80" y="108" type="line"/>
      <point x="80" y="0" type="line"/>
      <point x="695" y="0" type="line" smooth="yes"/>
      <point x="1001" y="0"/>
      <point x="1107" y="161"/>
      <point x="1107" y="326" type="curve" smooth="yes"/>
      <point x="1107" y="464"/>
      <point x="1028" y="575"/>
      <point x="872" y="614" type="curve"/>
      <point x="976" y="650"/>
      <point x="1046" y="739"/>
      <point x="1046" y="866" type="curve" smooth="yes"/>
      <point x="1046" y="1054"/>
      <point x="908" y="1152"/>
    </contour>
    <contour>
      <point x="605" y="1044" type="line"/>
      <point x="798" y="1044"/>
      <point x="880" y="995"/>
      <point x="880" y="860" type="curve" smooth="yes"/>
      <point x="880" y="737"/>
      <point x="811" y="662"/>
      <point x="641" y="662" type="curve" smooth="yes"/>
      <point x="407" y="662" type="line"/>
      <point x="407" y="1044" type="line"/>
    </contour>
    <contour>
      <point x="407" y="549" type="line"/>
      <point x="660" y="549" type="line" smooth="yes"/>
      <point x="850" y="549"/>
      <point x="937" y="460"/>
      <point x="937" y="332" type="curve" smooth="yes"/>
      <point x="937" y="192"/>
      <point x="858" y="108"/>
      <point x="666" y="108" type="curve" smooth="yes"/>
      <point x="407" y="108" type="line"/>
    </contour>
  </outline>
</glyph>
<glyph name="C" format="1">
  <advance width="1387"/>
  <unicode hex="0043"/>
  <outline>
    <contour>
      <point x="718" y="1152" type="move" name="top"/>
    </contour>
    <contour>
      <point x="706" y="0" type="move" name="bot"/>
    </contour>
    <contour>
      <point x="709" y="-22" type="curve" smooth="yes"/>
      <point x="938" y="-21"/>
      <point x="1132" y="57"/>
      <point x="1243" y="278" type="curve"/>
      <point x="1169" y="320" type="line"/>
      <point x="1074" y="123"/>
      <point x="892" y="57"/>
      <point x="715" y="57" type="curve" smooth="yes"/>
      <point x="456" y="57"/>
      <point x="217" y="240"/>
      <point x="217" y="580" type="curve" smooth="yes"/>
      <point x="217" y="855"/>
      <point x="402" y="1093"/>
      <point x="715" y="1093" type="curve" smooth="yes"/>
      <point x="937" y="1093"/>
      <point x="1064" y="1005"/>
      <point x="1160" y="810" type="curve"/>
      <point x="1232" y="820" type="line"/>
      <point x="1232" y="1153" type="line"/>
      <point x="1148" y="1153" type="line"/>
      <point x="1148" y="950" type="line"/>
      <point x="1059" y="1087"/>
      <point x="934" y="1173"/>
      <point x="710" y="1173" type="curve" smooth="yes"/>
      <point x="349" y="1173"/>
      <point x="111" y="915"/>
      <point x="111" y="580" type="curve" smooth="yes"/>
      <point x="111" y="188"/>
      <point x="397" y="-21"/>
    </contour>
  </outline>
</glyph>
<glyph name="D" format="1">
  <advance width="1401"/>
  <unicode hex="0044"/>
  <outline>
    <contour>
      <point x="599" y="1152" type="move" name="top"/>
    </contour>
    <contour>
      <point x="709" y="1152" type="curve" smooth="yes"/>
      <point x="82" y="1152" type="line"/>
      <point x="82" y="1044" type="line"/>
      <point x="242" y="1044" type="line"/>
      <point x="242" y="108" type="line"/>
      <point x="82" y="108" type="line"/>
      <point x="82" y="0" type="line"/>
      <point x="710" y="0" type="line" smooth="yes"/>
      <point x="1103" y="0"/>
      <point x="1300" y="248"/>
      <point x="1300" y="588" type="curve" smooth="yes"/>
      <point x="1300" y="869"/>
      <point x="1111" y="1152"/>
    </contour>
    <contour>
      <point x="409" y="1044" type="line"/>
      <point x="701" y="1044" type="line" smooth="yes"/>
      <point x="998" y="1044"/>
      <point x="1129" y="817"/>
      <point x="1129" y="583" type="curve" smooth="yes"/>
      <point x="1129" y="319"/>
      <point x="1001" y="108"/>
      <point x="694" y="108" type="curve" smooth="yes"/>
      <point x="409" y="108" type="line"/>
    </contour>
  </outline>
</glyph>
<glyph name="G" format="1">
  <advance width="1398"/>
  <unicode hex="0047"/>
  <outline>
    <contour>
      <point x="713" y="1152" type="move" name="top"/>
    </contour>
    <contour>
      <point x="711" y="0" type="move" name="bot"/>
    </contour>
    <contour>
      <point x="719" y="-21" type="curve" smooth="yes"/>
      <point x="972" y="-21"/>
      <point x="1275" y="96"/>
      <point x="1277" y="562" type="curve"/>
      <point x="925" y="562" type="line"/>
      <point x="925" y="488" type="line"/>
      <point x="1173" y="488" type="line"/>
      <point x="1168" y="162"/>
      <point x="921" y="60"/>
      <point x="722" y="58" type="curve" smooth="yes"/>
      <point x="413" y="58"/>
      <point x="219" y="262"/>
      <point x="219" y="586" type="curve" smooth="yes"/>
      <point x="219" y="899"/>
      <point x="413" y="1095"/>
      <point x="720" y="1095" type="curve" smooth="yes"/>
      <point x="914" y="1095"/>
      <point x="1076" y="998"/>
      <point x="1152" y="823" type="curve"/>
      <point x="1227" y="823" type="line"/>
      <point x="1227" y="1153" type="line"/>
      <point x="1138" y="1153" type="line"/>
      <point x="1138" y="976" type="line"/>
      <point x="1048" y="1102"/>
      <point x="894" y="1174"/>
      <point x="717" y="1174" type="curve" smooth="yes"/>
      <point x="351" y="1174"/>
      <point x="109" y="947"/>
      <point x="109" y="586" type="curve" smooth="yes"/>
      <point x="109" y="213"/>
      <point x="347" y="-21"/>
    </contour>
  </outline>
</glyph>
<glyph name="H" format="1">
  <advance width="1467"/>
  <unicode hex="0048"/>
  <outline>
    <contour>
      <point x="735" y="1152" type="move" name="top"/>
    </contour>
    <contour>
      <point x="105" y="0" type="line"/>
      <point x="547" y="0" type="line"/>
      <point x="547" y="71" type="line"/>
      <point x="378" y="71" type="line"/>
      <point x="378" y="549" type="line"/>
      <point x="1088" y="549" type="line"/>
      <point x="1088" y="71" type="line"/>
      <point x="920" y="71" type="line"/>
      <point x="920" y="0" type="line"/>
      <point x="1362" y="0" type="line"/>
      <point x="1362" y="71" type="line"/>
      <point x="1193" y="71" type="line"/>
      <point x="1193" y="1081" type="line"/>
      <point x="1362" y="1081" type="line"/>
      <point x="1362" y="1152" type="line"/>
      <point x="920" y="1152" type="line"/>
      <point x="920" y="1081" type="line"/>
      <point x="1088" y="1081" type="line"/>
      <point x="1088" y="625" type="line"/>
      <point x="378" y="625" type="line"/>
      <point x="378" y="1081" type="line"/>
      <point x="547" y="1081" type="line"/>
      <point x="547" y="1152" type="line"/>
      <point x="105" y="1152" type="line"/>
      <point x="105" y="1081" type="line"/>
      <point x="273" y="1081" type="line"/>
      <point x="273" y="71" type="line"/>
      <point x="105" y="71" type="line"/>
    </contour>
  </outline>
</glyph>
<glyph name="J" format="1">
  <advance width="609"/>
  <unicode hex="004A"/>
  <outline>
    <contour>
      <point x="369" y="1152" type="move" name="top"/>
    </contour>
    <contour>
      <point x="87" y="-129" type="line"/>
      <point x="215" y="-129" type="line" smooth="yes"/>
      <point x="359" y="-128"/>
      <point x="418" y="-69"/>
      <point x="418" y="122" type="curve" smooth="yes"/>
      <point x="418" y="1081" type="line"/>
      <point x="553" y="1081" type="line"/>
      <point x="553" y="1152" type="line"/>
      <point x="169" y="1152" type="line"/>
      <point x="169" y="1081" type="line"/>
      <point x="312" y="1081" type="line"/>
      <point x="312" y="127" type="line" smooth="yes"/>
      <point x="312" y="11"/>
      <point x="299" y="-46"/>
      <point x="210" y="-46" type="curve" smooth="yes"/>
      <point x="87" y="-46" type="line"/>
    </contour>
  </outline>
</glyph>
<glyph name="L" format="1">
  <advance width="1065"/>
  <unicode hex="004C"/>
  <outline>
    <contour>
      <point x="727" y="1152" type="move" name="top"/>
    </contour>
    <contour>
      <point x="589" y="804" type="move" name="caron.alt"/>
    </contour>
    <contour>
      <point x="609" y="0" type="move" name="bot"/>
    </contour>
    <contour>
      <point x="323" y="0" type="line"/>
      <point x="1012" y="0" type="line"/>
      <point x="1012" y="410" type="line"/>
      <point x="926" y="410" type="line"/>
      <point x="926" y="71" type="line"/>
      <point x="323" y="71" type="line"/>
    </contour>
    <component base="uc_main_stem" xOffset="-14"/>
  </outline>
</glyph>
<glyph name="N" format="1">
  <advance width="1443"/>
  <unicode hex="004E"/>
  <outline>
    <contour>
      <point x="720" y="1152" type="move" name="top"/>
    </contour>
    <contour>
      <point x="715" y="0" type="move" name="bot"/>
    </contour>
    <contour>
      <point x="111" y="0" type="line"/>
      <point x="507" y="0" type="line"/>
      <point x="507" y="71" type="line"/>
      <point x="351" y="71" type="line"/>
      <point x="351" y="1028" type="line"/>
      <point x="1129" y="0" type="line"/>
      <point x="1233" y="0" type="line"/>
      <point x="1233" y="1081" type="line"/>
      <point x="1375" y="1081" type="line"/>
      <point x="1375" y="1152" type="line"/>
      <point x="989" y="1152" type="line"/>
      <point x="989" y="1081" type="line"/>
      <point x="1147" y="1081" type="line"/>
      <point x="1147" y="142" type="line"/>
      <point x="380" y="1152" type="line"/>
      <point x="111" y="1152" type="line"/>
      <point x="111" y="1081" type="line"/>
      <point x="265" y="1081" type="line"/>
      <point x="265" y="71" type="line"/>
      <point x="111" y="71" type="line"/>
    </contour>
  </outline>
</glyph>
<glyph name="O" format="1">
  <advance width="1454"/>
  <unicode hex="004F"/>
  <outline>
    <contour>
      <point x="725" y="1152" type="move" name="top"/>
    </contour>
    <contour>
      <point x="726" y="57" type="curve" smooth="yes"/>
      <point x="390" y="57"/>
      <point x="225" y="305"/>
      <point x="225" y="572" type="curve" smooth="yes"/>
      <point x="225" y="833"/>
      <point x="392" y="1095"/>
      <point x="727" y="1095" type="curve" smooth="yes"/>
      <point x="1058" y="1095"/>
      <point x="1228" y="833"/>
      <point x="1228" y="572" type="curve" smooth="yes"/>
      <point x="1228" y="311"/>
      <point x="1058" y="57"/>
    </contour>
    <contour>
      <point x="727" y="-22.0025" type="line" smooth="yes"/>
      <point x="1126" y="-22.0025"/>
      <point x="1339" y="269"/>
      <point x="1339" y="572" type="curve" smooth="yes"/>
      <point x="1339" y="874"/>
      <point x="1124" y="1174"/>
      <point x="726" y="1174" type="curve" smooth="yes"/>
      <point x="330" y="1174"/>
      <point x="115" y="875"/>
      <point x="115" y="573" type="curve" smooth="yes"/>
      <point x="115" y="271.512"/>
      <point x="327.278" y="-22.0025"/>
      <point x="724.971" y="-22.0025" type="curve" smooth="yes"/>
    </contour>
  </outline>
</glyph>
<glyph name="Q" format="1">
  <advance width="1442"/>
  <unicode hex="0051"/>
  <outline>
    <contour>
      <point x="726" y="57" type="curve" smooth="yes"/>
      <point x="390" y="57"/>
      <point x="225" y="305"/>
      <point x="225" y="572" type="curve" smooth="yes"/>
      <point x="225" y="833"/>
      <point x="392" y="1095"/>
      <point x="727" y="1095" type="curve" smooth="yes"/>
      <point x="1058" y="1095"/>
      <point x="1228" y="833"/>
      <point x="1228" y="572" type="curve" smooth="yes"/>
      <point x="1228" y="311"/>
      <point x="1058" y="57"/>
    </contour>
    <contour>
      <point x="1174" y="-216" type="curve"/>
      <point x="1167" y="-146" type="line"/>
      <point x="1123.23" y="-158.81"/>
      <point x="1085.57" y="-164.646"/>
      <point x="1052.17" y="-164.646" type="curve" smooth="yes"/>
      <point x="943.613" y="-164.646"/>
      <point x="880.047" y="-103.005"/>
      <point x="797.986" y="-18.8127" type="curve"/>
      <point x="1151.21" y="13.5712"/>
      <point x="1339" y="287.497"/>
      <point x="1339" y="572" type="curve" smooth="yes"/>
      <point x="1339" y="874"/>
      <point x="1124" y="1174"/>
      <point x="726" y="1174" type="curve" smooth="yes"/>
      <point x="330" y="1174"/>
      <point x="115" y="875"/>
      <point x="115" y="573" type="curve" smooth="yes"/>
      <point x="115" y="277.712"/>
      <point x="318.637" y="-9.92704"/>
      <point x="700.671" y="-21.6326" type="curve"/>
      <point x="815.698" y="-152.17"/>
      <point x="910.895" y="-235.456"/>
      <point x="1049.33" y="-235.456" type="curve" smooth="yes"/>
      <point x="1087.21" y="-235.456"/>
      <point x="1128.34" y="-229.217"/>
    </contour>
  </outline>
</glyph>
<glyph name="R" format="1">
  <advance width="1267"/>
  <unicode hex="0052"/>
  <outline>
    <contour>
      <point x="598" y="1152" type="move" name="top"/>
    </contour>
    <contour>
      <point x="663" y="0" type="move" name="bot"/>
    </contour>
    <contour>
      <point x="929" y="0" type="line"/>
      <point x="1215" y="0" type="line"/>
      <point x="1215" y="109" type="line"/>
      <point x="1044" y="109" type="line"/>
      <point x="780" y="545" type="line"/>
      <point x="993" y="578"/>
      <point x="1077" y="693"/>
      <point x="1077" y="851" type="curve" smooth="yes"/>
      <point x="1077" y="1052"/>
      <point x="928" y="1152"/>
      <point x="686" y="1152" type="curve" smooth="yes"/>
      <point x="80" y="1152" type="line"/>
      <point x="80" y="1044" type="line"/>
      <point x="240" y="1044" type="line"/>
      <point x="240" y="108" type="line"/>
      <point x="80" y="108" type="line"/>
      <point x="80" y="0" type="line"/>
      <point x="567" y="0" type="line"/>
      <point x="567" y="108" type="line"/>
      <point x="407" y="108" type="line"/>
      <point x="407" y="1044" type="line"/>
      <point x="688" y="1044" type="line" smooth="yes"/>
      <point x="844" y="1044"/>
      <point x="911" y="956"/>
      <point x="911" y="849" type="curve" smooth="yes"/>
      <point x="911" y="749"/>
      <point x="860" y="640"/>
      <point x="660" y="640" type="curve" smooth="yes"/>
      <point x="479" y="640" type="line"/>
      <point x="479" y="529" type="line"/>
      <point x="620" y="529" type="line"/>
    </contour>
  </outline>
</glyph>
<glyph name="S" format="1">
  <advance width="1106"/>
  <unicode hex="0053"/>
  <outline>
    <contour>
      <point x="571" y="1152" type="move" name="top"/>
    </contour>
    <contour>
      <point x="625" y="0" type="move" name="bot"/>
    </contour>
    <contour>
      <point x="622" y="-21" type="curve" smooth="yes"/>
      <point x="919" y="-21"/>
      <point x="1012" y="166"/>
      <point x="1012" y="301" type="curve" smooth="yes"/>
      <point x="1012" y="567"/>
      <point x="823" y="600"/>
      <point x="598" y="628" type="curve" smooth="yes"/>
      <point x="405" y="652"/>
      <point x="255" y="681"/>
      <point x="255" y="860" type="curve" smooth="yes"/>
      <point x="255" y="994"/>
      <point x="346" y="1097"/>
      <point x="557" y="1097" type="curve" smooth="yes"/>
      <point x="721" y="1097"/>
      <point x="837" y="1027"/>
      <point x="857" y="945" type="curve" smooth="yes"/>
      <point x="857" y="838" type="line"/>
      <point x="945" y="838" type="line"/>
      <point x="945" y="1154" type="line"/>
      <point x="857" y="1154" type="line"/>
      <point x="857" y="1053" type="line"/>
      <point x="802" y="1133"/>
      <point x="656" y="1174"/>
      <point x="547" y="1174" type="curve" smooth="yes"/>
      <point x="330" y="1174"/>
      <point x="160" y="1072"/>
      <point x="160" y="859" type="curve" smooth="yes"/>
      <point x="160" y="605"/>
      <point x="366" y="566"/>
      <point x="582" y="542" type="curve" smooth="yes"/>
      <point x="788" y="521"/>
      <point x="911" y="483"/>
      <point x="911" y="303" type="curve" smooth="yes"/>
      <point x="911" y="176"/>
      <point x="833" y="56"/>
      <point x="618" y="56" type="curve" smooth="yes"/>
      <point x="413" y="56"/>
      <point x="292" y="123"/>
      <point x="252" y="243" type="curve"/>
      <point x="252" y="388" type="line"/>
      <point x="163" y="388" type="line"/>
      <point x="163" y="-1" type="line"/>
      <point x="252" y="-1" type="line"/>
      <point x="252" y="132" type="line"/>
      <point x="312" y="25"/>
      <point x="448" y="-21"/>
    </contour>
  </outline>
</glyph>
<glyph name="T" format="1">
  <advance width="1144"/>
  <unicode hex="0054"/>
  <outline>
    <contour>
      <point x="570" y="1152" type="move" name="top"/>
    </contour>
    <contour>
      <point x="575" y="0" type="move" name="bot"/>
    </contour>
    <contour>
      <point x="571" y="646" type="move" name="mid"/>
    </contour>
    <contour>
      <point x="52" y="752" type="line"/>
      <point x="176" y="752" type="line"/>
      <point x="176" y="1044" type="line"/>
      <point x="491" y="1044" type="line"/>
      <point x="491" y="108" type="line"/>
      <point x="331" y="108" type="line"/>
      <point x="331" y="0" type="line"/>
      <point x="818" y="0" type="line"/>
      <point x="818" y="108" type="line"/>
      <point x="658" y="108" type="line"/>
      <point x="658" y="1044" type="line"/>
      <point x="967" y="1044" type="line"/>
      <point x="967" y="752" type="line"/>
      <point x="1092" y="752" type="line"/>
      <point x="1092" y="1152" type="line"/>
      <point x="52" y="1152" type="line"/>
    </contour>
  </outline>
</glyph>
<glyph name="U" format="1">
  <advance width="1443"/>
  <unicode hex="0055"/>
  <outline>
    <contour>
      <point x="731" y="1152" type="move" name="top"/>
    </contour>
    <contour>
      <point x="718" y="-21" type="curve" smooth="yes"/>
      <point x="1018" y="-21"/>
      <point x="1229" y="127"/>
      <point x="1229" y="386" type="curve" smooth="yes"/>
      <point x="1229" y="1081" type="line"/>
      <point x="1386" y="1081" type="line"/>
      <point x="1386" y="1152" type="line"/>
      <point x="985" y="1152" type="line"/>
      <point x="985" y="1081" type="line"/>
      <point x="1136" y="1081" type="line"/>
      <point x="1136" y="383" type="line" smooth="yes"/>
      <point x="1136" y="185"/>
      <point x="972" y="58"/>
      <point x="720" y="58" type="curve" smooth="yes"/>
      <point x="483" y="58"/>
      <point x="331" y="187"/>
      <point x="331" y="384" type="curve" smooth="yes"/>
      <point x="331" y="1081" type="line"/>
      <point x="484" y="1081" type="line"/>
      <point x="484" y="1152" type="line"/>
      <point x="73" y="1152" type="line"/>
      <point x="73" y="1081" type="line"/>
      <point x="226" y="1081" type="line"/>
      <point x="226" y="393" type="line" smooth="yes"/>
      <point x="226" y="151"/>
      <point x="399" y="-21"/>
    </contour>
  </outline>
</glyph>
<glyph name="V" format="1">
  <advance width="1275"/>
  <unicode hex="0056"/>
  <outline>
    <contour>
      <point x="591" y="0" type="line"/>
      <point x="690" y="0" type="line"/>
      <point x="1105" y="1081" type="line"/>
      <point x="1236" y="1081" type="line"/>
      <point x="1236" y="1152" type="line"/>
      <point x="848" y="1152" type="line"/>
      <point x="848" y="1081" type="line"/>
      <point x="1001" y="1081" type="line"/>
      <point x="645" y="120" type="line"/>
      <point x="288" y="1081" type="line"/>
      <point x="443" y="1081" type="line"/>
      <point x="443" y="1152" type="line"/>
      <point x="36" y="1152" type="line"/>
      <point x="36" y="1081" type="line"/>
      <point x="177" y="1081" type="line"/>
    </contour>
  </outline>
</glyph>
<glyph name="W" format="1">
  <advance width="1926"/>
  <unicode hex="0057"/>
  <outline>
    <contour>
      <point x="972" y="1152" type="move" name="top"/>
    </contour>
    <contour>
      <point x="558" y="0" type="line"/>
      <point x="656" y="0" type="line"/>
      <point x="966" y="938" type="line"/>
      <point x="1275" y="0" type="line"/>
      <point x="1372" y="0" type="line"/>
      <point x="1719" y="1081" type="line"/>
      <point x="1863" y="1081" type="line"/>
      <point x="1863" y="1152" type="line"/>
      <point x="1473" y="1152" type="line"/>
      <point x="1473" y="1081" type="line"/>
      <point x="1626" y="1081" type="line"/>
      <point x="1327" y="134" type="line"/>
      <point x="1009" y="1110" type="line"/>
      <point x="931" y="1110" type="line"/>
      <point x="611" y="134" type="line"/>
      <point x="307" y="1081" type="line"/>
      <point x="463" y="1081" type="line"/>
      <point x="463" y="1152" type="line"/>
      <point x="62" y="1152" type="line"/>
      <point x="62" y="1081" type="line"/>
      <point x="202" y="1081" type="line"/>
    </contour>
  </outline>
</glyph>
<glyph name="Y" format="1">
  <advance width="1275"/>
  <unicode hex="0059"/>
  <outline>
    <contour>
      <point x="646" y="1152" type="move" name="top"/>
    </contour>
    <contour>
      <point x="418" y="0" type="line"/>
      <point x="860" y="0" type="line"/>
      <point x="860" y="71" type="line"/>
      <point x="691" y="71" type="line"/>
      <point x="691" y="477" type="line"/>
      <point x="1097" y="1081" type="line"/>
      <point x="1251" y="1081" type="line"/>
      <point x="1251" y="1152" type="line"/>
      <point x="842" y="1152" type="line"/>
      <point x="842" y="1081" type="line"/>
      <point x="997" y="1081" type="line"/>
      <point x="646" y="552" type="line"/>
      <point x="289" y="1081" type="line"/>
      <point x="438" y="1081" type="line"/>
      <point x="438" y="1152" type="line"/>
      <point x="20" y="1152" type="line"/>
      <point x="20" y="1081" type="line"/>
      <point x="176" y="1081" type="line"/>
      <point x="586" y="477" type="line"/>
      <point x="586" y="71" type="line"/>
      <point x="418" y="71" type="line"/>
    </contour>
  </outline>
</glyph>
<glyph name="Z" format="1">
  <advance width="1210"/>
  <unicode hex="005A"/>
  <outline>
    <contour>
      <point x="636" y="1152" type="move" name="top"/>
    </contour>
    <contour>
      <point x="135" y="0" type="line"/>
      <point x="1081" y="0" type="line"/>
      <point x="1081" y="379" type="line"/>
      <point x="1000" y="379" type="line"/>
      <point x="1000" y="71" type="line"/>
      <point x="257" y="71" type="line"/>
      <point x="1059" y="1082" type="line"/>
      <point x="1059" y="1152" type="line"/>
      <point x="164" y="1152" type="line"/>
      <point x="164" y="791" type="line"/>
      <point x="246" y="791" type="line"/>
      <point x="246" y="1081" type="line"/>
      <point x="934" y="1081" type="line"/>
      <point x="135" y="76" type="line"/>
    </contour>
  </outline>
</glyph>
<glyph name="backslash" format="1">
  <advance width="463"/>
  <unicode hex="005C"/>
  <outline>
    <contour>
      <point x="381" y="-23" type="line"/>
      <point x="472" y="-23" type="line"/>
      <point x="71" y="1190" type="line"/>
      <point x="-16" y="1190" type="line"/>
    </contour>
  </outline>
</glyph>
<glyph name="a" format="1">
  <advance width="943"/>
  <unicode hex="0061"/>
  <outline>
    <contour>
      <point x="460" y="805" type="move" name="top"/>
    </contour>
    <contour>
      <point x="389" y="46" type="curve" smooth="yes"/>
      <point x="268" y="46"/>
      <point x="200" y="126"/>
      <point x="200" y="220" type="curve" smooth="yes"/>
      <point x="200" y="354"/>
      <point x="300" y="397"/>
      <point x="410" y="397" type="curve" smooth="yes"/>
      <point x="501" y="397"/>
      <point x="588" y="379"/>
      <point x="673" y="365" type="curve"/>
      <point x="673" y="144" type="line"/>
      <point x="560" y="76"/>
      <point x="479" y="46"/>
    </contour>
    <contour>
      <point x="380" y="-22" type="curve" smooth="yes"/>
      <point x="480" y="-22"/>
      <point x="572" y="10"/>
      <point x="677" y="78" type="curve"/>
      <point x="690" y="0" type="line"/>
      <point x="894" y="0" type="line"/>
      <point x="894" y="71" type="line"/>
      <point x="770" y="71" type="line"/>
      <point x="770" y="550" type="line" smooth="yes"/>
      <point x="770" y="691"/>
      <point x="683" y="826"/>
      <point x="454" y="826" type="curve" smooth="yes"/>
      <point x="370" y="826"/>
      <point x="251" y="801"/>
      <point x="148" y="750" type="curve"/>
      <point x="178" y="682" type="line"/>
      <point x="263" y="723"/>
      <point x="369" y="752"/>
      <point x="456" y="752" type="curve" smooth="yes"/>
      <point x="585" y="752"/>
      <point x="673" y="684"/>
      <point x="673" y="534" type="curve" smooth="yes"/>
      <point x="673" y="429" type="line"/>
      <point x="583" y="445"/>
      <point x="491" y="459"/>
      <point x="404" y="459" type="curve" smooth="yes"/>
      <point x="244" y="459"/>
      <point x="106" y="398"/>
      <point x="106" y="217" type="curve" smooth="yes"/>
      <point x="106" y="78"/>
      <point x="214" y="-22"/>
    </contour>
  </outline>
</glyph>
<glyph name="b" format="1">
  <advance width="1053"/>
  <unicode hex="0062"/>
  <outline>
    <contour>
      <point x="621" y="804" type="move" name="top"/>
    </contour>
    <contour>
      <point x="573" y="-22" type="curve" smooth="yes"/>
      <point x="815.941" y="-22"/>
      <point x="996.04" y="140.377"/>
      <point x="996.04" y="412.007" type="curve" smooth="yes"/>
      <point x="996.04" y="672.748"/>
      <point x="818" y="826"/>
      <point x="594" y="826" type="curve" smooth="yes"/>
      <point x="496.379" y="826"/>
      <point x="388.843" y="788.464"/>
      <point x="300" y="721.736" type="curve"/>
      <point x="300" y="1174" type="line"/>
      <point x="65" y="1174" type="line"/>
      <point x="65" y="1103" type="line"/>
      <point x="203" y="1103" type="line"/>
      <point x="203" y="71" type="line"/>
      <point x="59" y="71" type="line"/>
      <point x="59" y="0" type="line"/>
      <point x="300" y="0" type="line"/>
      <point x="300" y="83.8158" type="line"/>
      <point x="376.523" y="15.8668"/>
      <point x="476.79" y="-22"/>
    </contour>
    <contour>
      <point x="300" y="644.274" type="line"/>
      <point x="385.603" y="712.684"/>
      <point x="486.302" y="751"/>
      <point x="573" y="751" type="curve" smooth="yes"/>
      <point x="766" y="751"/>
      <point x="896" y="619"/>
      <point x="896" y="401" type="curve" smooth="yes"/>
      <point x="896" y="181"/>
      <point x="760" y="52"/>
      <point x="560" y="52" type="curve" smooth="yes"/>
      <point x="471.36" y="52"/>
      <point x="375.727" y="89.7609"/>
      <point x="300" y="157.096" type="curve"/>
    </contour>
  </outline>
</glyph>
<glyph name="d" format="1">
  <advance width="1030"/>
  <unicode hex="0064"/>
  <outline>
    <contour>
      <point x="423" y="804" type="move" name="top"/>
    </contour>
    <contour>
      <point x="900" y="804" type="move" name="caron.alt"/>
    </contour>
    <contour>
      <point x="759" y="0" type="line"/>
      <point x="991" y="0" type="line"/>
      <point x="991" y="71" type="line"/>
      <point x="857" y="71" type="line"/>
      <point x="857" y="1174" type="line"/>
      <point x="621" y="1174" type="line"/>
      <point x="621" y="1103" type="line"/>
      <point x="759" y="1103" type="line"/>
      <point x="759" y="726.391" type="line"/>
      <point x="673.4" y="788.702"/>
      <point x="561.114" y="826"/>
      <point x="459" y="826" type="curve" smooth="yes"/>
      <point x="233.3" y="826"/>
      <point x="60.9828" y="662.884"/>
      <point x="60.9828" y="403.491" type="curve" smooth="yes"/>
      <point x="60.9828" y="145.472"/>
      <point x="244.786" y="-22"/>
      <point x="480" y="-22" type="curve" smooth="yes"/>
      <point x="574.741" y="-22"/>
      <point x="678.006" y="14.0634"/>
      <point x="759" y="75.0403" type="curve"/>
    </contour>
    <contour>
      <point x="759" y="146.262" type="line"/>
      <point x="687.477" y="93.4436"/>
      <point x="506.516" y="51.6891"/>
      <point x="494.26" y="51.6891" type="curve" smooth="yes"/>
      <point x="493.827" y="51.6891"/>
      <point x="493.605" y="51.7412"/>
      <point x="493.605" y="51.8465" type="curve" smooth="yes"/>
      <point x="493.605" y="52.0429"/>
      <point x="494.377" y="52.4245"/>
      <point x="496" y="53" type="curve"/>
      <point x="303" y="53"/>
      <point x="160" y="186"/>
      <point x="160" y="394" type="curve" smooth="yes"/>
      <point x="160" y="613"/>
      <point x="292" y="751"/>
      <point x="474" y="751" type="curve" smooth="yes"/>
      <point x="567.435" y="751"/>
      <point x="673.175" y="715.448"/>
      <point x="759" y="656.216" type="curve"/>
    </contour>
  </outline>
</glyph>
<glyph name="e" format="1">
  <advance width="959"/>
  <unicode hex="0065"/>
  <outline>
    <contour>
      <point x="159" y="444" type="line"/>
      <point x="169" y="631"/>
      <point x="306" y="753"/>
      <point x="471" y="753" type="curve" smooth="yes"/>
      <point x="620" y="753"/>
      <point x="752" y="650"/>
      <point x="771" y="444" type="curve"/>
    </contour>
    <contour>
      <point x="489" y="-21" type="curve" smooth="yes"/>
      <point x="623" y="-21"/>
      <point x="758" y="34"/>
      <point x="849" y="129" type="curve"/>
      <point x="815" y="194" type="line"/>
      <point x="743" y="115"/>
      <point x="618" y="54"/>
      <point x="492" y="54" type="curve" smooth="yes"/>
      <point x="326" y="54"/>
      <point x="168" y="171"/>
      <point x="158" y="381" type="curve"/>
      <point x="866" y="381" type="line"/>
      <point x="861" y="689"/>
      <point x="667" y="826"/>
      <point x="472" y="826" type="curve" smooth="yes"/>
      <point x="254" y="826"/>
      <point x="57" y="674"/>
      <point x="57" y="402" type="curve" smooth="yes"/>
      <point x="57" y="141"/>
      <point x="256" y="-21"/>
    </contour>
  </outline>
</glyph>
<glyph name="f" format="1">
  <advance width="686"/>
  <unicode hex="0066"/>
  <outline>
    <contour>
      <point x="384" y="1101" type="move" name="top"/>
    </contour>
    <contour>
      <point x="99" y="0" type="line"/>
      <point x="553" y="0" type="line"/>
      <point x="553" y="71" type="line"/>
      <point x="354" y="71" type="line"/>
      <point x="354" y="733" type="line"/>
      <point x="578" y="733" type="line"/>
      <point x="578" y="804" type="line"/>
      <point x="354" y="804" type="line"/>
      <point x="354" y="1005" type="line" smooth="yes"/>
      <point x="354" y="1092"/>
      <point x="395" y="1134"/>
      <point x="458" y="1134" type="curve" smooth="yes"/>
      <point x="523" y="1134"/>
      <point x="555" y="1094"/>
      <point x="565" y="1023" type="curve"/>
      <point x="640" y="1047" type="line"/>
      <point x="631" y="1158"/>
      <point x="553" y="1206"/>
      <point x="454" y="1206" type="curve" smooth="yes"/>
      <point x="323" y="1206"/>
      <point x="254" y="1129"/>
      <point x="254" y="1006" type="curve" smooth="yes"/>
      <point x="254" y="804" type="line"/>
      <point x="98" y="804" type="line"/>
      <point x="98" y="733" type="line"/>
      <point x="254" y="733" type="line"/>
      <point x="254" y="71" type="line"/>
      <point x="99" y="71" type="line"/>
    </contour>
  </outline>
</glyph>
<glyph name="g" format="1">
  <advance width="1032"/>
  <unicode hex="0067"/>
  <outline>
    <contour>
      <point x="495" y="804" type="move" name="top"/>
    </contour>
    <contour>
      <point x="479" y="-380" type="curve" smooth="yes"/>
      <point x="714" y="-380"/>
      <point x="871" y="-271"/>
      <point x="871" y="-17" type="curve" smooth="yes"/>
      <point x="871" y="733" type="line"/>
      <point x="1007" y="733" type="line"/>
      <point x="1007" y="804" type="line"/>
      <point x="773" y="804" type="line"/>
      <point x="773" y="718.008" type="line"/>
      <point x="686.078" y="784.377"/>
      <point x="567.959" y="824.48"/>
      <point x="461" y="824.48" type="curve" smooth="yes"/>
      <point x="235.3" y="824.48"/>
      <point x="62.9828" y="664.627"/>
      <point x="62.9828" y="410.421" type="curve" smooth="yes"/>
      <point x="62.9828" y="157.511"/>
      <point x="246.813" y="-6.55957"/>
      <point x="482" y="-6.55957" type="curve" smooth="yes"/>
      <point x="581.815" y="-6.55957"/>
      <point x="691.092" y="32.6694"/>
      <point x="773.818" y="98.3494" type="curve"/>
      <point x="774" y="-30" type="line" smooth="yes"/>
      <point x="774" y="-205"/>
      <point x="672" y="-302"/>
      <point x="479" y="-302" type="curve" smooth="yes"/>
      <point x="401" y="-302"/>
      <point x="309" y="-286"/>
      <point x="204" y="-256" type="curve"/>
      <point x="186" y="-332" type="line"/>
      <point x="289" y="-361"/>
      <point x="389" y="-380"/>
    </contour>
    <contour>
      <point x="773.035" y="649.705" type="curve"/>
      <point x="773.719" y="167.87" type="line"/>
      <point x="692.98" y="105.203"/>
      <point x="588.983" y="66.9404"/>
      <point x="498" y="66.9404" type="curve" smooth="yes"/>
      <point x="305" y="66.9404"/>
      <point x="162" y="197.28"/>
      <point x="162" y="401.12" type="curve" smooth="yes"/>
      <point x="162" y="615.74"/>
      <point x="294" y="750.98"/>
      <point x="476" y="750.98" type="curve" smooth="yes"/>
      <point x="573.851" y="750.98"/>
      <point x="685.2" y="712.767"/>
    </contour>
  </outline>
</glyph>
<glyph name="h" format="1">
  <advance width="1015"/>
  <unicode hex="0068"/>
  <outline>
    <contour>
      <point x="558" y="1033" type="move" name="top"/>
    </contour>
    <contour>
      <point x="34" y="0" type="line"/>
      <point x="422" y="0" type="line"/>
      <point x="422" y="71" type="line"/>
      <point x="281" y="71" type="line"/>
      <point x="281" y="638.302" type="line"/>
      <point x="389.868" y="702.987"/>
      <point x="503.314" y="748"/>
      <point x="583" y="748" type="curve" smooth="yes"/>
      <point x="693" y="748"/>
      <point x="762" y="681"/>
      <point x="762" y="567" type="curve" smooth="yes"/>
      <point x="762" y="71" type="line"/>
      <point x="605" y="71" type="line"/>
      <point x="605" y="0" type="line"/>
      <point x="1010" y="0" type="line"/>
      <point x="1010" y="71" type="line"/>
      <point x="859" y="71" type="line"/>
      <point x="859" y="569" type="line" smooth="yes"/>
      <point x="859" y="731"/>
      <point x="753" y="826"/>
      <point x="605" y="826" type="curve" smooth="yes"/>
      <point x="507.772" y="826"/>
      <point x="391.703" y="778.522"/>
      <point x="281" y="710.39" type="curve"/>
      <point x="281" y="1174" type="line"/>
      <point x="39" y="1174" type="line"/>
      <point x="39" y="1103" type="line"/>
      <point x="183" y="1103" type="line"/>
      <point x="183" y="71" type="line"/>
      <point x="34" y="71" type="line"/>
    </contour>
  </outline>
</glyph>
<glyph name="m" format="1">
  <advance width="1592"/>
  <unicode hex="006D"/>
  <outline>
    <contour>
      <point x="828" y="804" type="move" name="top"/>
    </contour>
    <contour>
      <point x="39" y="0" type="line"/>
      <point x="465" y="0" type="line"/>
      <point x="465" y="71" type="line"/>
      <point x="305" y="71" type="line"/>
      <point x="305" y="647.648" type="line"/>
      <point x="408.882" y="707.281"/>
      <point x="515.211" y="748"/>
      <point x="591" y="748" type="curve" smooth="yes"/>
      <point x="701" y="748"/>
      <point x="770" y="681"/>
      <point x="770" y="567" type="curve" smooth="yes"/>
      <point x="770" y="71" type="line"/>
      <point x="613" y="71" type="line"/>
      <point x="613" y="0" type="line"/>
      <point x="1018" y="0" type="line"/>
      <point x="1018" y="71" type="line"/>
      <point x="867" y="71" type="line"/>
      <point x="867" y="569" type="line" smooth="yes"/>
      <point x="867" y="594.06"/>
      <point x="864.463" y="617.517"/>
      <point x="859.627" y="639.267" type="curve"/>
      <point x="959.832" y="698.599"/>
      <point x="1153.24" y="749.027"/>
      <point x="1161.75" y="749.027" type="curve"/>
      <point x="1161.75" y="749.027"/>
      <point x="1161.91" y="748.692"/>
      <point x="1160" y="748" type="curve"/>
      <point x="1270" y="748"/>
      <point x="1339" y="681"/>
      <point x="1339" y="567" type="curve" smooth="yes"/>
      <point x="1339" y="71" type="line"/>
      <point x="1182" y="71" type="line"/>
      <point x="1182" y="0" type="line"/>
      <point x="1587" y="0" type="line"/>
      <point x="1587" y="71" type="line"/>
      <point x="1436" y="71" type="line"/>
      <point x="1436" y="569" type="line" smooth="yes"/>
      <point x="1436" y="731"/>
      <point x="1330" y="826"/>
      <point x="1182" y="826" type="curve" smooth="yes"/>
      <point x="1079.16" y="826"/>
      <point x="955.252" y="772.888"/>
      <point x="838.904" y="698.4" type="curve"/>
      <point x="797.989" y="780.359"/>
      <point x="715.584" y="826"/>
      <point x="613" y="826" type="curve" smooth="yes"/>
      <point x="520.446" y="826"/>
      <point x="410.819" y="782.977"/>
      <point x="305" y="720.07" type="curve"/>
      <point x="305" y="804" type="line"/>
      <point x="41" y="804" type="line"/>
      <point x="41" y="733" type="line"/>
      <point x="208" y="733" type="line"/>
      <point x="208" y="71" type="line"/>
      <point x="39" y="71" type="line"/>
    </contour>
  </outline>
</glyph>
<glyph name="n" format="1">
  <advance width="1058"/>
  <unicode hex="006E"/>
  <outline>
    <contour>
      <point x="590" y="804" type="move" name="top"/>
    </contour>
    <contour>
      <point x="571" y="0" type="move" name="bot"/>
    </contour>
    <contour>
      <point x="45" y="0" type="line"/>
      <point x="495" y="0" type="line"/>
      <point x="495" y="108" type="line"/>
      <point x="351" y="108" type="line"/>
      <point x="351" y="622" type="line"/>
      <point x="438" y="673"/>
      <point x="529" y="707"/>
      <point x="603" y="707" type="curve" smooth="yes"/>
      <point x="698" y="707"/>
      <point x="756" y="642"/>
      <point x="756" y="528" type="curve" smooth="yes"/>
      <point x="756" y="108" type="line"/>
      <point x="622" y="108" type="line"/>
      <point x="622" y="0" type="line"/>
      <point x="1054" y="0" type="line"/>
      <point x="1054" y="108" type="line"/>
      <point x="906" y="108" type="line"/>
      <point x="906" y="557" type="line" smooth="yes"/>
      <point x="906" y="731"/>
      <point x="788" y="826"/>
      <point x="642" y="826" type="curve" smooth="yes"/>
      <point x="547" y="826"/>
      <point x="446" y="785"/>
      <point x="351" y="724" type="curve"/>
      <point x="351" y="804" type="line"/>
      <point x="46" y="804" type="line"/>
      <point x="46" y="696" type="line"/>
      <point x="201" y="696" type="line"/>
      <point x="201" y="108" type="line"/>
      <point x="45" y="108" type="line"/>
    </contour>
  </outline>
</glyph>
<glyph name="o" format="1">
  <advance width="981"/>
  <unicode hex="006F"/>
  <outline>
    <contour>
      <point x="487" y="805" type="move" name="top"/>
    </contour>
    <contour>
      <point x="489" y="-22" type="curve" smooth="yes"/>
      <point x="744" y="-22"/>
      <point x="924" y="155"/>
      <point x="924" y="407" type="curve" smooth="yes"/>
      <point x="924" y="652"/>
      <point x="744" y="826"/>
      <point x="489" y="826" type="curve" smooth="yes"/>
      <point x="236" y="826"/>
      <point x="57" y="652"/>
      <point x="57" y="406" type="curve" smooth="yes"/>
      <point x="57" y="155"/>
      <point x="235" y="-22"/>
    </contour>
    <contour>
      <point x="489" y="55" type="curve" smooth="yes"/>
      <point x="294" y="55"/>
      <point x="156" y="200"/>
      <point x="156" y="406" type="curve" smooth="yes"/>
      <point x="156" y="607"/>
      <point x="294" y="749"/>
      <point x="489" y="749" type="curve" smooth="yes"/>
      <point x="685" y="749"/>
      <point x="824" y="607"/>
      <point x="824" y="407" type="curve" smooth="yes"/>
      <point x="824" y="201"/>
      <point x="685" y="55"/>
    </contour>
  </outline>
</glyph>
<glyph name="p" format="1">
  <advance width="1042"/>
  <unicode hex="0070"/>
  <outline>
    <contour>
      <point x="566" y="805" type="move" name="top"/>
    </contour>
    <contour>
      <point x="561" y="-22" type="curve" smooth="yes"/>
      <point x="803.941" y="-22"/>
      <point x="984.04" y="140.377"/>
      <point x="984.04" y="412.007" type="curve" smooth="yes"/>
      <point x="984.04" y="672.748"/>
      <point x="796" y="826"/>
      <point x="582" y="826" type="curve" smooth="yes"/>
      <point x="485.332" y="826"/>
      <point x="378.942" y="789.193"/>
      <point x="290.608" y="723.683" type="curve"/>
      <point x="288" y="804" type="line"/>
      <point x="63" y="804" type="line"/>
      <point x="63" y="733" type="line"/>
      <point x="195" y="733" type="line"/>
      <point x="195" y="-246" type="line"/>
      <point x="52" y="-246" type="line"/>
      <point x="52" y="-317" type="line"/>
      <point x="438" y="-317" type="line"/>
      <point x="438" y="-246" type="line"/>
      <point x="292" y="-246" type="line"/>
      <point x="292.364" y="79.9955" type="line"/>
      <point x="368.311" y="14.449"/>
      <point x="466.608" y="-22"/>
    </contour>
    <contour>
      <point x="292.446" y="153.197" type="curve"/>
      <point x="292.998" y="648.221" type="line"/>
      <point x="377.504" y="714.156"/>
      <point x="475.983" y="751"/>
      <point x="561" y="751" type="curve" smooth="yes"/>
      <point x="754" y="751"/>
      <point x="884" y="619"/>
      <point x="884" y="401" type="curve" smooth="yes"/>
      <point x="884" y="181"/>
      <point x="748" y="52"/>
      <point x="548" y="52" type="curve" smooth="yes"/>
      <point x="461.086" y="52"/>
      <point x="367.448" y="88.3049"/>
    </contour>
  </outline>
</glyph>
<glyph name="q" format="1">
  <advance width="1068"/>
  <unicode hex="0071"/>
  <outline>
    <contour>
      <point x="624" y="-330" type="line"/>
      <point x="1009" y="-330" type="line"/>
      <point x="1009" y="-256" type="line"/>
      <point x="868" y="-256" type="line"/>
      <point x="868" y="733" type="line"/>
      <point x="1003" y="733" type="line"/>
      <point x="1003" y="804" type="line"/>
      <point x="775" y="804" type="line"/>
      <point x="771.16" y="716.448" type="line"/>
      <point x="684.13" y="784.713"/>
      <point x="565.435" y="826"/>
      <point x="458" y="826" type="curve" smooth="yes"/>
      <point x="232.3" y="826"/>
      <point x="59.9828" y="662.884"/>
      <point x="59.9828" y="403.491" type="curve" smooth="yes"/>
      <point x="59.9828" y="145.472"/>
      <point x="243.786" y="-22"/>
      <point x="479" y="-22" type="curve" smooth="yes"/>
      <point x="578.487" y="-22"/>
      <point x="687.373" y="17.7669"/>
      <point x="770" y="84.3898" type="curve"/>
      <point x="770" y="-256" type="line"/>
      <point x="624" y="-256" type="line"/>
    </contour>
    <contour>
      <point x="770" y="647.684" type="curve"/>
      <point x="770" y="155.421" type="line"/>
      <point x="696.954" y="97.7998"/>
      <point x="506.239" y="51.4593"/>
      <point x="493.034" y="51.4593" type="curve" smooth="yes"/>
      <point x="492.558" y="51.4593"/>
      <point x="492.312" y="51.5198"/>
      <point x="492.312" y="51.6423" type="curve" smooth="yes"/>
      <point x="492.312" y="51.8723"/>
      <point x="493.178" y="52.3212"/>
      <point x="495" y="53" type="curve"/>
      <point x="302" y="53"/>
      <point x="159" y="186"/>
      <point x="159" y="394" type="curve" smooth="yes"/>
      <point x="159" y="613"/>
      <point x="291" y="751"/>
      <point x="473" y="751" type="curve" smooth="yes"/>
      <point x="570.839" y="751"/>
      <point x="682.171" y="712.018"/>
    </contour>
  </outline>
</glyph>
<glyph name="r" format="1">
  <advance width="790"/>
  <unicode hex="0072"/>
  <outline>
    <contour>
      <point x="462" y="804" type="move" name="top"/>
    </contour>
    <contour>
      <point x="303" y="0" type="move" name="bot"/>
    </contour>
    <contour>
      <point x="71" y="0" type="line"/>
      <point x="521" y="0" type="line"/>
      <point x="521" y="108" type="line"/>
      <point x="377" y="108" type="line"/>
      <point x="378" y="433" type="line" smooth="yes"/>
      <point x="378" y="592"/>
      <point x="465" y="683"/>
      <point x="569" y="683" type="curve" smooth="yes"/>
      <point x="618" y="683"/>
      <point x="664" y="668"/>
      <point x="711" y="637" type="curve"/>
      <point x="747" y="774" type="line"/>
      <point x="692" y="800"/>
      <point x="638" y="816"/>
      <point x="583" y="816" type="curve" smooth="yes"/>
      <point x="502" y="816"/>
      <point x="426" y="774"/>
      <point x="377" y="657" type="curve"/>
      <point x="377" y="804" type="line"/>
      <point x="72" y="804" type="line"/>
      <point x="72" y="696" type="line"/>
      <point x="227" y="696" type="line"/>
      <point x="227" y="108" type="line"/>
      <point x="71" y="108" type="line"/>
    </contour>
  </outline>
</glyph>
<glyph name="s" format="1">
  <advance width="903"/>
  <unicode hex="0073"/>
  <outline>
    <contour>
      <point x="447" y="805" type="move" name="top"/>
    </contour>
    <contour>
      <point x="472" y="0" type="move" name="bot"/>
    </contour>
    <contour>
      <point x="489" y="-21" type="curve" smooth="yes"/>
      <point x="644" y="-21"/>
      <point x="799" y="46"/>
      <point x="801" y="198" type="curve" smooth="yes"/>
      <point x="804" y="375"/>
      <point x="687" y="408"/>
      <point x="520" y="446" type="curve" smooth="yes"/>
      <point x="399" y="473" type="line" smooth="yes"/>
      <point x="298" y="496"/>
      <point x="236" y="528"/>
      <point x="235" y="605" type="curve" smooth="yes"/>
      <point x="234" y="708"/>
      <point x="338" y="754"/>
      <point x="443" y="754" type="curve" smooth="yes"/>
      <point x="529" y="754"/>
      <point x="637" y="715"/>
      <point x="680" y="659" type="curve"/>
      <point x="689" y="538" type="line"/>
      <point x="764" y="538" type="line"/>
      <point x="764" y="806" type="line"/>
      <point x="681" y="806" type="line"/>
      <point x="681" y="738" type="line"/>
      <point x="622" y="795"/>
      <point x="520" y="826"/>
      <point x="431" y="826" type="curve" smooth="yes"/>
      <point x="272" y="826"/>
      <point x="138" y="752"/>
      <point x="138" y="602" type="curve" smooth="yes"/>
      <point x="138" y="472"/>
      <point x="227" y="421"/>
      <point x="365" y="390" type="curve" smooth="yes"/>
      <point x="490" y="363" type="line" smooth="yes"/>
      <point x="642" y="331"/>
      <point x="708" y="306"/>
      <point x="709" y="198" type="curve"/>
      <point x="710" y="105"/>
      <point x="612" y="48"/>
      <point x="480" y="48" type="curve" smooth="yes"/>
      <point x="372" y="48"/>
      <point x="272" y="84"/>
      <point x="214" y="158" type="curve"/>
      <point x="208" y="256" type="line"/>
      <point x="135" y="256" type="line"/>
      <point x="135" y="0" type="line"/>
      <point x="214" y="0" type="line"/>
      <point x="214" y="76" type="line"/>
      <point x="267" y="20"/>
      <point x="374" y="-21"/>
    </contour>
  </outline>
</glyph>
<glyph name="t" format="1">
  <advance width="617"/>
  <unicode hex="0074"/>
  <outline>
    <contour>
      <point x="255" y="1067" type="move" name="top"/>
    </contour>
    <contour>
      <point x="391" y="3" type="move" name="bot"/>
    </contour>
    <contour>
      <point x="408" y="0" type="curve" smooth="yes"/>
      <point x="558" y="0" type="line"/>
      <point x="558" y="108" type="line"/>
      <point x="435" y="108" type="line" smooth="yes"/>
      <point x="354" y="108"/>
      <point x="325" y="146"/>
      <point x="325" y="246" type="curve" smooth="yes"/>
      <point x="325" y="696" type="line"/>
      <point x="539" y="696" type="line"/>
      <point x="539" y="804" type="line"/>
      <point x="325" y="804" type="line"/>
      <point x="325" y="1138" type="line"/>
      <point x="175" y="1079" type="line"/>
      <point x="175" y="804" type="line"/>
      <point x="41" y="804" type="line"/>
      <point x="41" y="696" type="line"/>
      <point x="174" y="696" type="line"/>
      <point x="174" y="238" type="line" smooth="yes"/>
      <point x="174" y="76"/>
      <point x="254" y="0"/>
    </contour>
  </outline>
</glyph>
<glyph name="u" format="1">
  <advance width="1035"/>
  <unicode hex="0075"/>
  <outline>
    <contour>
      <point x="489" y="804" type="move" name="top"/>
    </contour>
    <contour>
      <point x="877" y="0" type="move" name="ogonek"/>
    </contour>
    <contour>
      <point x="434" y="-21" type="curve" smooth="yes"/>
      <point x="551" y="-21"/>
      <point x="655" y="27"/>
      <point x="754" y="99" type="curve"/>
      <point x="759" y="0" type="line"/>
      <point x="1000" y="0" type="line"/>
      <point x="1000" y="70" type="line"/>
      <point x="849" y="70" type="line"/>
      <point x="849" y="804" type="line"/>
      <point x="604" y="804" type="line"/>
      <point x="604" y="733" type="line"/>
      <point x="752" y="733" type="line"/>
      <point x="752" y="174" type="line"/>
      <point x="660" y="103"/>
      <point x="570" y="56"/>
      <point x="451" y="56" type="curve" smooth="yes"/>
      <point x="329" y="56"/>
      <point x="276" y="137"/>
      <point x="276" y="235" type="curve" smooth="yes"/>
      <point x="276" y="804" type="line"/>
      <point x="31" y="804" type="line"/>
      <point x="31" y="733" type="line"/>
      <point x="179" y="733" type="line"/>
      <point x="179" y="226" type="line" smooth="yes"/>
      <point x="179" y="116"/>
      <point x="236" y="-21"/>
    </contour>
  </outline>
</glyph>
<glyph name="v" format="1">
  <advance width="1053"/>
  <unicode hex="0076"/>
  <outline>
    <contour>
      <point x="481" y="0" type="line"/>
      <point x="578" y="0" type="line"/>
      <point x="900" y="734" type="line"/>
      <point x="1037" y="734" type="line"/>
      <point x="1037" y="805" type="line"/>
      <point x="650" y="805" type="line"/>
      <point x="650" y="734" type="line"/>
      <point x="802" y="734" type="line"/>
      <point x="536" y="93" type="line"/>
      <point x="263" y="734" type="line"/>
      <point x="417" y="734" type="line"/>
      <point x="417" y="805" type="line"/>
      <point x="16" y="805" type="line"/>
      <point x="16" y="734" type="line"/>
      <point x="158" y="734" type="line"/>
    </contour>
  </outline>
</glyph>
<glyph name="braceleft" format="1">
  <advance width="492"/>
  <unicode hex="007B"/>
  <outline>
    <contour>
      <point x="379" y="-61" type="curve" smooth="yes"/>
      <point x="444" y="-61" type="line"/>
      <point x="444" y="7" type="line"/>
      <point x="287" y="7"/>
      <point x="269" y="33"/>
      <point x="269" y="205" type="curve" smooth="yes"/>
      <point x="269" y="489"/>
      <point x="247" y="540"/>
      <point x="139" y="573" type="curve"/>
      <point x="254" y="601"/>
      <point x="270" y="658"/>
      <point x="270" y="956" type="curve" smooth="yes"/>
      <point x="270" y="1114"/>
      <point x="295" y="1137"/>
      <point x="444" y="1137" type="curve"/>
      <point x="444" y="1206" type="line"/>
      <point x="379" y="1206" type="line"/>
      <point x="186" y="1206"/>
      <point x="182" y="1087"/>
      <point x="182" y="861" type="curve" smooth="yes"/>
      <point x="182" y="686"/>
      <point x="176" y="613"/>
      <point x="36" y="613" type="curve"/>
      <point x="36" y="533" type="line"/>
      <point x="172" y="533"/>
      <point x="182" y="464"/>
      <point x="182" y="298" type="curve" smooth="yes"/>
      <point x="182" y="57"/>
      <point x="186" y="-61"/>
    </contour>
  </outline>
</glyph>
<glyph name="bar" format="1">
  <advance width="403"/>
  <unicode hex="007C"/>
  <outline>
    <contour>
      <point x="165" y="-84" type="line"/>
      <point x="247" y="-84" type="line"/>
      <point x="247" y="1196" type="line"/>
      <point x="165" y="1196" type="line"/>
    </contour>
  </outline>
</glyph>
<glyph name="braceright" format="1">
  <advance width="494"/>
  <unicode hex="007D"/>
  <outline>
    <contour>
      <point x="66" y="-61" type="line"/>
      <point x="132" y="-61" type="line" smooth="yes"/>
      <point x="324" y="-61"/>
      <point x="328" y="57"/>
      <point x="328" y="298" type="curve" smooth="yes"/>
      <point x="328" y="464"/>
      <point x="339" y="533"/>
      <point x="474" y="533" type="curve"/>
      <point x="474" y="613" type="line"/>
      <point x="333" y="613"/>
      <point x="328" y="687"/>
      <point x="328" y="863" type="curve" smooth="yes"/>
      <point x="328" y="1088"/>
      <point x="324" y="1206"/>
      <point x="131" y="1206" type="curve"/>
      <point x="66" y="1206" type="line"/>
      <point x="66" y="1137" type="line"/>
      <point x="216" y="1137"/>
      <point x="241" y="1114"/>
      <point x="241" y="956" type="curve" smooth="yes"/>
      <point x="241" y="658"/>
      <point x="257" y="601"/>
      <point x="371" y="573" type="curve"/>
      <point x="263" y="540"/>
      <point x="241" y="488"/>
      <point x="241" y="203" type="curve" smooth="yes"/>
      <point x="241" y="33"/>
      <point x="223" y="7"/>
      <point x="66" y="7" type="curve"/>
    </contour>
  </outline>
</glyph>
<glyph name="asciitilde" format="1">
  <advance width="887"/>
  <unicode hex="007E"/>
  <outline>
    <contour>
      <point x="782" y="663" type="line"/>
      <point x="741" y="612"/>
      <point x="697" y="583"/>
      <point x="639" y="583" type="curve" smooth="yes"/>
      <point x="511" y="583"/>
      <point x="401" y="703"/>
      <point x="255" y="703" type="curve" smooth="yes"/>
      <point x="186" y="703"/>
      <point x="125" y="667"/>
      <point x="87" y="609" type="curve"/>
      <point x="102" y="539" type="line"/>
      <point x="145" y="596"/>
      <point x="192" y="623"/>
      <point x="250" y="623" type="curve" smooth="yes"/>
      <point x="379" y="623"/>
      <point x="484" y="501"/>
      <point x="637" y="501" type="curve" smooth="yes"/>
      <point x="707" y="501"/>
      <point x="762" y="539"/>
      <point x="798" y="590" type="curve"/>
    </contour>
  </outline>
</glyph>
<glyph name="cent" format="1">
  <advance width="927"/>
  <unicode hex="00A2"/>
  <outline>
    <component base="c"/>
    <contour>
      <point x="346" y="-271" type="line"/>
      <point x="660" y="1066" type="line"/>
      <point x="614" y="1073" type="line"/>
      <point x="300" y="-263" type="line"/>
    </contour>
  </outline>
</glyph>
<glyph name="yen" format="1">
  <advance width="1420"/>
  <unicode hex="00A5"/>
  <outline>
    <contour>
      <point x="307" y="235" type="line"/>
      <point x="968" y="235" type="line"/>
      <point x="968" y="297" type="line"/>
      <point x="307" y="297" type="line"/>
    </contour>
    <contour>
      <point x="307" y="409" type="line"/>
      <point x="968" y="409" type="line"/>
      <point x="968" y="471" type="line"/>
      <point x="307" y="471" type="line"/>
    </contour>
    <component base="Y"/>
  </outline>
</glyph>
<glyph name="dieresis" format="1">
  <advance width="423"/>
  <unicode hex="00A8"/>
  <outline>
    <contour>
      <point x="217" y="804" type="move" name="_top"/>
    </contour>
    <contour>
      <point x="33" y="941" type="curve" smooth="yes"/>
      <point x="73" y="941"/>
      <point x="98" y="965"/>
      <point x="98" y="1004" type="curve"/>
      <point x="98" y="1042"/>
      <point x="73" y="1066"/>
      <point x="33" y="1066" type="curve" smooth="yes"/>
      <point x="-6" y="1066"/>
      <point x="-31" y="1042"/>
      <point x="-31" y="1004" type="curve" smooth="yes"/>
      <point x="-31" y="965"/>
      <point x="-6" y="941"/>
    </contour>
    <contour>
      <point x="385" y="941" type="curve" smooth="yes"/>
      <point x="425" y="941"/>
      <point x="450" y="965"/>
      <point x="451" y="1003" type="curve"/>
      <point x="451" y="1041"/>
      <point x="426" y="1066"/>
      <point x="385" y="1066" type="curve" smooth="yes"/>
      <point x="346" y="1066"/>
      <point x="321" y="1041"/>
      <point x="321" y="1003" type="curve" smooth="yes"/>
      <point x="321" y="965"/>
      <point x="346" y="941"/>
    </contour>
  </outline>
</glyph>
<glyph name="copyright" format="1">
  <advance width="1521"/>
  <unicode hex="00A9"/>
  <outline>
    <contour>
      <point x="766" y="197" type="curve" smooth="yes"/>
      <point x="889" y="197"/>
      <point x="1009" y="249"/>
      <point x="1084" y="338" type="curve"/>
      <point x="1050" y="389" type="line"/>
      <point x="975" y="306"/>
      <point x="881" y="260"/>
      <point x="769" y="259" type="curve" smooth="yes"/>
      <point x="602" y="258"/>
      <point x="462" y="391"/>
      <point x="462" y="588" type="curve" smooth="yes"/>
      <point x="462" y="812"/>
      <point x="628" y="913"/>
      <point x="775" y="913" type="curve" smooth="yes"/>
      <point x="910" y="913"/>
      <point x="998" y="843"/>
      <point x="1011" y="729" type="curve"/>
      <point x="1076" y="729" type="line"/>
      <point x="1076" y="957" type="line"/>
      <point x="1012" y="957" type="line"/>
      <point x="1011" y="865" type="line"/>
      <point x="965" y="942"/>
      <point x="871" y="975"/>
      <point x="769" y="975" type="curve" smooth="yes"/>
      <point x="584" y="975"/>
      <point x="382" y="851"/>
      <point x="382" y="588" type="curve" smooth="yes"/>
      <point x="382" y="353"/>
      <point x="554" y="197"/>
    </contour>
    <contour>
      <point x="760" y="-39" type="curve" smooth="yes"/>
      <point x="1125" y="-39"/>
      <point x="1403" y="229"/>
      <point x="1403" y="586" type="curve" smooth="yes"/>
      <point x="1403" y="943"/>
      <point x="1125" y="1211"/>
      <point x="760" y="1211" type="curve" smooth="yes"/>
      <point x="396" y="1211"/>
      <point x="118" y="943"/>
      <point x="118" y="586" type="curve" smooth="yes"/>
      <point x="118" y="229"/>
      <point x="396" y="-39"/>
    </contour>
    <contour>
      <point x="760" y="27" type="curve" smooth="yes"/>
      <point x="444" y="27"/>
      <point x="202" y="266"/>
      <point x="202" y="585" type="curve" smooth="yes"/>
      <point x="202" y="905"/>
      <point x="444" y="1146"/>
      <point x="760" y="1146" type="curve" smooth="yes"/>
      <point x="1076" y="1146"/>
      <point x="1319" y="905"/>
      <point x="1319" y="585" type="curve" smooth="yes"/>
      <point x="1319" y="268"/>
      <point x="1076" y="27"/>
    </contour>
  </outline>
</glyph>
<glyph name="guillemotleft" format="1">
  <advance width="818"/>
  <unicode hex="00AB"/>
  <outline>
    <contour>
      <point x="332" y="251" type="line"/>
      <point x="401" y="251" type="line"/>
      <point x="190" y="639" type="line"/>
      <point x="401" y="1025" type="line"/>
      <point x="332" y="1025" type="line"/>
      <point x="50" y="639" type="line"/>
    </contour>
    <contour>
      <point x="638" y="251" type="line"/>
      <point x="707" y="251" type="line"/>
      <point x="495" y="639" type="line"/>
      <point x="707" y="1025" type="line"/>
      <point x="638" y="1025" type="line"/>
      <point x="356" y="639" type="line"/>
    </contour>
  </outline>
</glyph>
<glyph name="uni00AD" format="1">
  <advance width="710"/>
  <unicode hex="00AD"/>
  <outline>
    <contour>
      <point x="110" y="381" type="line"/>
      <point x="600" y="381" type="line"/>
      <point x="600" y="496" type="line"/>
      <point x="110" y="496" type="line"/>
    </contour>
  </outline>
</glyph>
<glyph name="registered" format="1">
  <advance width="1521"/>
  <unicode hex="00AE"/>
  <outline>
    <contour>
      <point x="446" y="249" type="line"/>
      <point x="697" y="249" type="line"/>
      <point x="697" y="295" type="line"/>
      <point x="604" y="295" type="line"/>
      <point x="604" y="583" type="line"/>
      <point x="759" y="583" type="line"/>
      <point x="944" y="249" type="line"/>
      <point x="1087" y="249" type="line"/>
      <point x="1087" y="297" type="line"/>
      <point x="988" y="297" type="line"/>
      <point x="823" y="589" type="line"/>
      <point x="943" y="600"/>
      <point x="1013" y="665"/>
      <point x="1013" y="765" type="curve" smooth="yes"/>
      <point x="1013" y="885"/>
      <point x="933" y="956"/>
      <point x="797" y="956" type="curve" smooth="yes"/>
      <point x="441" y="956" type="line"/>
      <point x="441" y="909" type="line"/>
      <point x="539" y="909" type="line"/>
      <point x="539" y="295" type="line"/>
      <point x="446" y="295" type="line"/>
    </contour>
    <contour>
      <point x="604" y="633" type="line"/>
      <point x="604" y="909" type="line"/>
      <point x="797" y="909" type="line" smooth="yes"/>
      <point x="892" y="909"/>
      <point x="949" y="857"/>
      <point x="949" y="765" type="curve" smooth="yes"/>
      <point x="949" y="681"/>
      <point x="892" y="633"/>
      <point x="795" y="633" type="curve" smooth="yes"/>
    </contour>
    <contour>
      <point x="742" y="45" type="curve" smooth="yes"/>
      <point x="388" y="45"/>
      <point x="209" y="303"/>
      <point x="209" y="582" type="curve" smooth="yes"/>
      <point x="209" y="854"/>
      <point x="391" y="1126"/>
      <point x="742" y="1126" type="curve" smooth="yes"/>
      <point x="1090" y="1126"/>
      <point x="1275" y="854"/>
      <point x="1275" y="582" type="curve" smooth="yes"/>
      <point x="1275" y="310"/>
      <point x="1090" y="45"/>
    </contour>
    <contour>
      <point x="742" y="-22" type="curve" smooth="yes"/>
      <point x="1147" y="-22"/>
      <point x="1358" y="271"/>
      <point x="1358" y="582" type="curve" smooth="yes"/>
      <point x="1358" y="893"/>
      <point x="1145" y="1192"/>
      <point x="742" y="1192" type="curve" smooth="yes"/>
      <point x="340" y="1192"/>
      <point x="126" y="893"/>
      <point x="126" y="582" type="curve" smooth="yes"/>
      <point x="126" y="272.524"/>
      <point x="336.287" y="-22.0025"/>
      <point x="739.948" y="-22.0025" type="curve" smooth="yes"/>
      <point x="740.631" y="-22.0025"/>
      <point x="741.315" y="-22.0017"/>
    </contour>
  </outline>
</glyph>
<glyph name="macron" format="1">
  <advance width="342"/>
  <unicode hex="00AF"/>
  <outline>
    <contour>
      <point x="179" y="804" type="move" name="_top"/>
    </contour>
    <contour>
      <point x="173" y="963" type="move" name="_mid"/>
    </contour>
    <contour>
      <point x="-26" y="930" type="line"/>
      <point x="373" y="930" type="line"/>
      <point x="373" y="993" type="line"/>
      <point x="-26" y="993" type="line"/>
    </contour>
  </outline>
</glyph>
<glyph name="plusminus" format="1">
  <advance width="771"/>
  <unicode hex="00B1"/>
  <outline>
    <contour>
      <point x="349" y="152" type="line"/>
      <point x="425" y="152" type="line"/>
      <point x="425" y="542" type="line"/>
      <point x="779" y="542" type="line"/>
      <point x="779" y="620" type="line"/>
      <point x="425" y="620" type="line"/>
      <point x="425" y="999" type="line"/>
      <point x="349" y="999" type="line"/>
      <point x="349" y="620" type="line"/>
      <point x="-5" y="620" type="line"/>
      <point x="-5" y="542" type="line"/>
      <point x="349" y="542" type="line"/>
    </contour>
    <contour>
      <point x="-7" y="0" type="line"/>
      <point x="777" y="0" type="line"/>
      <point x="777" y="75" type="line"/>
      <point x="-7" y="75" type="line"/>
    </contour>
  </outline>
</glyph>
<glyph name="twosuperior" format="1">
  <advance width="925"/>
  <unicode hex="00B2"/>
  <outline>
    <contour>
      <point x="200" y="600" type="line"/>
      <point x="200" y="538" type="line"/>
      <point x="728" y="538" type="line"/>
      <point x="728" y="747" type="line"/>
      <point x="664" y="747" type="line"/>
      <point x="664" y="599" type="line"/>
      <point x="292" y="599" type="line"/>
      <point x="534" y="832" type="line" smooth="yes"/>
      <point x="633" y="928"/>
      <point x="712" y="1010"/>
      <point x="712" y="1125" type="curve" smooth="yes"/>
      <point x="712" y="1268"/>
      <point x="605" y="1347"/>
      <point x="453" y="1347" type="curve" smooth="yes"/>
      <point x="281" y="1347"/>
      <point x="192" y="1239"/>
      <point x="192" y="1102" type="curve" smooth="yes"/>
      <point x="192" y="1074"/>
      <point x="196" y="1046"/>
      <point x="203" y="1017" type="curve"/>
      <point x="272" y="1017" type="line"/>
      <point x="265" y="1044"/>
      <point x="261" y="1070"/>
      <point x="261" y="1094" type="curve" smooth="yes"/>
      <point x="261" y="1202"/>
      <point x="328" y="1284"/>
      <point x="453" y="1284" type="curve" smooth="yes"/>
      <point x="571.153" y="1284"/>
      <point x="636.051" y="1220.81"/>
      <point x="636.051" y="1120.34" type="curve" smooth="yes"/>
      <point x="636.051" y="1031.02"/>
      <point x="579.418" y="973.435"/>
      <point x="488" y="883" type="curve" smooth="yes"/>
    </contour>
  </outline>
</glyph>
<glyph name="uni00B2" format="1">
  <advance width="952"/>
  <unicode hex="00B2"/>
  <outline>
    <contour>
      <point x="204" y="625" type="line"/>
      <point x="204" y="537" type="line"/>
      <point x="748" y="537" type="line"/>
      <point x="747" y="774" type="line"/>
      <point x="654" y="774" type="line"/>
      <point x="654" y="624" type="line"/>
      <point x="337" y="624" type="line"/>
      <point x="536" y="819" type="line" smooth="yes"/>
      <point x="631" y="913"/>
      <point x="736" y="1006"/>
      <point x="736" y="1125" type="curve" smooth="yes"/>
      <point x="736" y="1270"/>
      <point x="635" y="1359"/>
      <point x="466" y="1359" type="curve" smooth="yes"/>
      <point x="295" y="1359"/>
      <point x="197" y="1256"/>
      <point x="197" y="1115" type="curve" smooth="yes"/>
      <point x="197" y="1083"/>
      <point x="202" y="1051"/>
      <point x="212" y="1017" type="curve"/>
      <point x="311" y="1017" type="line"/>
      <point x="303" y="1048"/>
      <point x="299" y="1076"/>
      <point x="299" y="1102" type="curve" smooth="yes"/>
      <point x="299" y="1204"/>
      <point x="361" y="1266"/>
      <point x="467" y="1266" type="curve" smooth="yes"/>
      <point x="577" y="1266"/>
      <point x="623" y="1204"/>
      <point x="625" y="1125" type="curve" smooth="yes"/>
      <point x="627" y="1046"/>
      <point x="552" y="976"/>
      <point x="467" y="890" type="curve" smooth="yes"/>
    </contour>
  </outline>
</glyph>
<glyph name="threesuperior" format="1">
  <advance width="968"/>
  <unicode hex="00B3"/>
  <outline>
    <contour>
      <point x="487" y="526" type="curve" smooth="yes"/>
      <point x="661" y="526"/>
      <point x="774" y="614"/>
      <point x="774" y="750" type="curve" smooth="yes"/>
      <point x="774" y="848"/>
      <point x="708" y="932"/>
      <point x="575" y="950" type="curve"/>
      <point x="686" y="966"/>
      <point x="753" y="1039"/>
      <point x="753" y="1133" type="curve" smooth="yes"/>
      <point x="753" y="1264"/>
      <point x="650" y="1347"/>
      <point x="489" y="1347" type="curve" smooth="yes"/>
      <point x="367" y="1347"/>
      <point x="264" y="1289"/>
      <point x="219" y="1198" type="curve"/>
      <point x="277" y="1167" type="line"/>
      <point x="312" y="1241"/>
      <point x="391" y="1286"/>
      <point x="488" y="1286" type="curve" smooth="yes"/>
      <point x="603" y="1286"/>
      <point x="677" y="1224"/>
      <point x="677" y="1131" type="curve" smooth="yes"/>
      <point x="677" y="1036"/>
      <point x="600" y="978"/>
      <point x="444" y="978" type="curve"/>
      <point x="446" y="917" type="line"/>
      <point x="618.775" y="917"/>
      <point x="696.009" y="857.828"/>
      <point x="696.009" y="751.154" type="curve" smooth="yes"/>
      <point x="696.009" y="651.221"/>
      <point x="615.212" y="588"/>
      <point x="487" y="588" type="curve" smooth="yes"/>
      <point x="385" y="588"/>
      <point x="303" y="636"/>
      <point x="269" y="715" type="curve"/>
      <point x="210" y="679" type="line"/>
      <point x="247" y="586"/>
      <point x="354" y="526"/>
    </contour>
  </outline>
</glyph>
<glyph name="acute" format="1">
  <advance width="287"/>
  <unicode hex="00B4"/>
  <outline>
    <contour>
      <point x="90" y="804" type="move" name="_top"/>
    </contour>
    <contour>
      <point x="163" y="1255" type="line"/>
      <point x="64" y="983" type="line"/>
      <point x="123" y="983" type="line"/>
      <point x="269" y="1255" type="line"/>
    </contour>
  </outline>
</glyph>
<glyph name="uni00B5" format="1">
  <advance width="1035"/>
  <unicode hex="00B5"/>
  <outline>
    <contour>
      <point x="489" y="804" type="move" name="top"/>
    </contour>
    <contour>
      <point x="1000" y="0" type="line"/>
      <point x="1000" y="70" type="line"/>
      <point x="849" y="70" type="line"/>
      <point x="849" y="804" type="line"/>
      <point x="604" y="804" type="line"/>
      <point x="604" y="733" type="line"/>
      <point x="752" y="733" type="line"/>
      <point x="752" y="174" type="line"/>
      <point x="660" y="103"/>
      <point x="570" y="56"/>
      <point x="451" y="56" type="curve" smooth="yes"/>
      <point x="329" y="56"/>
      <point x="276" y="137"/>
      <point x="276" y="235" type="curve" smooth="yes"/>
      <point x="276" y="804" type="line"/>
      <point x="31" y="804" type="line"/>
      <point x="31" y="733" type="line"/>
      <point x="179" y="733" type="line"/>
      <point x="179" y="-267" type="line"/>
      <point x="276" y="-267" type="line"/>
      <point x="276" y="38" type="line"/>
      <point x="307" y="5"/>
      <point x="357" y="-21"/>
      <point x="434" y="-21" type="curve" smooth="yes"/>
      <point x="551" y="-21"/>
      <point x="655" y="27"/>
      <point x="754" y="99" type="curve"/>
      <point x="759" y="0" type="line"/>
    </contour>
  </outline>
</glyph>
<glyph name="paragraph" format="1">
  <advance width="1090"/>
  <unicode hex="00B6"/>
  <outline>
    <contour>
      <point x="500" y="-6" type="line"/>
      <point x="1014" y="-6" type="line"/>
      <point x="1014" y="104" type="line"/>
      <point x="867" y="104" type="line"/>
      <point x="867" y="1047" type="line"/>
      <point x="1013" y="1047" type="line"/>
      <point x="1013" y="1152" type="line"/>
      <point x="489" y="1152" type="line" smooth="yes"/>
      <point x="227" y="1152"/>
      <point x="121" y="999"/>
      <point x="121" y="833" type="curve" smooth="yes"/>
      <point x="121" y="666"/>
      <point x="242" y="510"/>
      <point x="466" y="511" type="curve" smooth="yes"/>
      <point x="719" y="511" type="line"/>
      <point x="719" y="104" type="line"/>
      <point x="500" y="104" type="line"/>
    </contour>
    <contour>
      <point x="525" y="625" type="line"/>
      <point x="525" y="1047" type="line"/>
      <point x="719" y="1047" type="line"/>
      <point x="719" y="625" type="line"/>
    </contour>
  </outline>
</glyph>
<glyph name="ordmasculine" format="1">
  <advance width="854"/>
  <unicode hex="00BA"/>
  <outline>
    <contour>
      <point x="428" y="529" type="curve" smooth="yes"/>
      <point x="607" y="529"/>
      <point x="752" y="645"/>
      <point x="752" y="852" type="curve" smooth="yes"/>
      <point x="752" y="1059"/>
      <point x="607" y="1174"/>
      <point x="429" y="1174" type="curve" smooth="yes"/>
      <point x="251" y="1174"/>
      <point x="106" y="1059"/>
      <point x="106" y="852" type="curve" smooth="yes"/>
      <point x="106" y="645"/>
      <point x="251" y="529"/>
    </contour>
    <contour>
      <point x="429" y="598" type="curve" smooth="yes"/>
      <point x="305" y="598"/>
      <point x="195" y="682"/>
      <point x="195" y="852" type="curve" smooth="yes"/>
      <point x="195" y="1022"/>
      <point x="305" y="1105"/>
      <point x="428" y="1105" type="curve" smooth="yes"/>
      <point x="552" y="1105"/>
      <point x="663" y="1022"/>
      <point x="663" y="852" type="curve" smooth="yes"/>
      <point x="663" y="682"/>
      <point x="552" y="598"/>
    </contour>
  </outline>
</glyph>
<glyph name="onequarter" format="1">
  <advance width="1639"/>
  <unicode hex="00BC"/>
  <outline>
    <contour>
      <point x="1233" y="0" type="line"/>
      <point x="1524" y="0" type="line"/>
      <point x="1524" y="57" type="line"/>
      <point x="1419" y="57" type="line"/>
      <point x="1419" y="253" type="line"/>
      <point x="1533" y="253" type="line"/>
      <point x="1533" y="309" type="line"/>
      <point x="1419" y="309" type="line"/>
      <point x="1419" y="809" type="line"/>
      <point x="1343" y="809" type="line"/>
      <point x="988" y="310" type="line"/>
      <point x="1001" y="253" type="line"/>
      <point x="1349" y="253" type="line"/>
      <point x="1349" y="57" type="line"/>
      <point x="1233" y="57" type="line"/>
    </contour>
    <contour>
      <point x="154" y="355" type="line"/>
      <point x="469" y="355" type="line"/>
      <point x="469" y="412" type="line"/>
      <point x="349" y="412" type="line"/>
      <point x="349" y="1152" type="line"/>
      <point x="151" y="1139" type="line"/>
      <point x="152" y="1083" type="line"/>
      <point x="276" y="1088" type="line"/>
      <point x="276" y="412" type="line"/>
      <point x="154" y="412" type="line"/>
    </contour>
    <contour>
      <point x="421" y="-18" type="line"/>
      <point x="494" y="-18" type="line"/>
      <point x="1286" y="1187" type="line"/>
      <point x="1216" y="1187" type="line"/>
    </contour>
    <contour>
      <point x="1060" y="309" type="line"/>
      <point x="1349" y="721" type="line"/>
      <point x="1349" y="309" type="line"/>
    </contour>
  </outline>
</glyph>
<glyph name="onehalf" format="1">
  <advance width="1817"/>
  <unicode hex="00BD"/>
  <outline>
    <contour>
      <point x="1163" y="0" type="line"/>
      <point x="1701" y="0" type="line"/>
      <point x="1701" y="207" type="line"/>
      <point x="1639" y="207" type="line"/>
      <point x="1640" y="57" type="line"/>
      <point x="1254" y="57" type="line"/>
      <point x="1504" y="295" type="line" smooth="yes"/>
      <point x="1604" y="390"/>
      <point x="1679" y="473"/>
      <point x="1679" y="586" type="curve" smooth="yes"/>
      <point x="1679" y="730"/>
      <point x="1573" y="809"/>
      <point x="1422" y="809" type="curve" smooth="yes"/>
      <point x="1244" y="809"/>
      <point x="1152" y="697"/>
      <point x="1152" y="560" type="curve" smooth="yes"/>
      <point x="1152" y="533"/>
      <point x="1156" y="505"/>
      <point x="1164" y="477" type="curve"/>
      <point x="1232" y="477" type="line"/>
      <point x="1225" y="503"/>
      <point x="1222" y="529"/>
      <point x="1222" y="552" type="curve" smooth="yes"/>
      <point x="1222" y="664"/>
      <point x="1288" y="749"/>
      <point x="1422" y="749" type="curve" smooth="yes"/>
      <point x="1539" y="749"/>
      <point x="1606" y="686"/>
      <point x="1607" y="587" type="curve" smooth="yes"/>
      <point x="1608" y="494"/>
      <point x="1554" y="434"/>
      <point x="1460" y="343" type="curve" smooth="yes"/>
      <point x="1163" y="59" type="line"/>
    </contour>
    <contour>
      <point x="155" y="355" type="line"/>
      <point x="470" y="355" type="line"/>
      <point x="470" y="412" type="line"/>
      <point x="350" y="412" type="line"/>
      <point x="350" y="1152" type="line"/>
      <point x="152" y="1139" type="line"/>
      <point x="152" y="1083" type="line"/>
      <point x="276" y="1088" type="line"/>
      <point x="276" y="412" type="line"/>
      <point x="155" y="412" type="line"/>
    </contour>
    <contour>
      <point x="429" y="-18" type="line"/>
      <point x="502" y="-18" type="line"/>
      <point x="1293" y="1187" type="line"/>
      <point x="1223" y="1187" type="line"/>
    </contour>
  </outline>
</glyph>
<glyph name="multiply" format="1">
  <advance width="687"/>
  <unicode hex="00D7"/>
  <outline>
    <contour>
      <point x="574" y="300" type="line"/>
      <point x="625" y="351" type="line"/>
      <point x="400" y="577" type="line"/>
      <point x="627" y="805" type="line"/>
      <point x="577" y="857" type="line"/>
      <point x="348" y="629" type="line"/>
      <point x="121" y="853" type="line"/>
      <point x="69" y="802" type="line"/>
      <point x="296" y="576" type="line"/>
      <point x="67" y="350" type="line"/>
      <point x="118" y="299" type="line"/>
      <point x="347" y="526" type="line"/>
    </contour>
  </outline>
</glyph>
<glyph name="Oslash" format="1">
  <advance width="1546"/>
  <unicode hex="00D8"/>
  <outline>
    <component base="O" xOffset="5" yOffset="-7"/>
    <contour>
      <point x="278" y="-73" type="line"/>
      <point x="1251" y="1180" type="line"/>
      <point x="1201" y="1216" type="line"/>
      <point x="226" y="-36" type="line"/>
    </contour>
  </outline>
</glyph>
<glyph name="Thorn" format="1">
  <advance width="1177"/>
  <unicode hex="00DE"/>
  <outline>
    <contour>
      <point x="470" y="335" type="line"/>
      <point x="712" y="335" type="line" smooth="yes"/>
      <point x="932" y="335"/>
      <point x="1058" y="445"/>
      <point x="1058" y="641" type="curve" smooth="yes"/>
      <point x="1058" y="812"/>
      <point x="930" y="913"/>
      <point x="704" y="913" type="curve" smooth="yes"/>
      <point x="327" y="913" type="line"/>
      <point x="327" y="843" type="line"/>
      <point x="704" y="843" type="line" smooth="yes"/>
      <point x="862" y="843"/>
      <point x="956" y="768"/>
      <point x="957" y="640" type="curve" smooth="yes"/>
      <point x="957" y="487"/>
      <point x="867" y="401"/>
      <point x="713" y="401" type="curve" smooth="yes"/>
      <point x="470" y="401" type="line"/>
    </contour>
    <component base="uc_main_stem" xOffset="-14"/>
  </outline>
</glyph>
<glyph name="germandbls" format="1">
  <advance width="1160"/>
  <unicode hex="00DF"/>
  <outline>
    <contour>
      <point x="63" y="0" type="line"/>
      <point x="497" y="0" type="line"/>
      <point x="497" y="111" type="line"/>
      <point x="379" y="111" type="line"/>
      <point x="379" y="844" type="line" smooth="yes"/>
      <point x="379" y="1016"/>
      <point x="462" y="1124"/>
      <point x="610" y="1124" type="curve" smooth="yes"/>
      <point x="744" y="1124"/>
      <point x="817" y="1053"/>
      <point x="817" y="940" type="curve" smooth="yes"/>
      <point x="817" y="805"/>
      <point x="732" y="720"/>
      <point x="585" y="716" type="curve"/>
      <point x="585" y="611" type="line"/>
      <point x="802" y="611"/>
      <point x="934" y="516"/>
      <point x="934" y="364" type="curve" smooth="yes"/>
      <point x="934" y="205"/>
      <point x="802" y="111"/>
      <point x="604" y="111" type="curve"/>
      <point x="604" y="0" type="line"/>
      <point x="908" y="0"/>
      <point x="1097" y="142"/>
      <point x="1097" y="364" type="curve" smooth="yes"/>
      <point x="1097" y="521"/>
      <point x="986" y="646"/>
      <point x="780" y="681" type="curve"/>
      <point x="897" y="720"/>
      <point x="971" y="822"/>
      <point x="971" y="948" type="curve" smooth="yes"/>
      <point x="971" y="1133"/>
      <point x="835" y="1242"/>
      <point x="610" y="1242" type="curve" smooth="yes"/>
      <point x="364" y="1242"/>
      <point x="216" y="1092"/>
      <point x="216" y="840" type="curve" smooth="yes"/>
      <point x="216" y="111" type="line"/>
      <point x="63" y="111" type="line"/>
    </contour>
  </outline>
</glyph>
<glyph name="eth" format="1">
  <advance width="934"/>
  <unicode hex="00F0"/>
  <outline>
    <contour>
      <point x="464" y="-22" type="curve" smooth="yes"/>
      <point x="683" y="-22"/>
      <point x="861" y="136"/>
      <point x="861" y="397" type="curve" smooth="yes"/>
      <point x="861" y="829"/>
      <point x="445" y="1147"/>
      <point x="188" y="1362" type="curve"/>
      <point x="136" y="1302" type="line"/>
      <point x="337" y="1141"/>
      <point x="581" y="944"/>
      <point x="694" y="706" type="curve"/>
      <point x="642" y="753"/>
      <point x="547" y="798"/>
      <point x="447" y="798" type="curve" smooth="yes"/>
      <point x="239" y="798"/>
      <point x="63" y="630"/>
      <point x="63" y="428" type="curve" smooth="yes"/>
      <point x="63" y="194"/>
      <point x="194" y="-22"/>
    </contour>
    <contour>
      <point x="465" y="59" type="curve" smooth="yes"/>
      <point x="256" y="59"/>
      <point x="158" y="235"/>
      <point x="158" y="409" type="curve" smooth="yes"/>
      <point x="158" y="619"/>
      <point x="304" y="724"/>
      <point x="457" y="724" type="curve" smooth="yes"/>
      <point x="611" y="724"/>
      <point x="769" y="624"/>
      <point x="769" y="403" type="curve" smooth="yes"/>
      <point x="769" y="235"/>
      <point x="682" y="59"/>
    </contour>
    <contour>
      <point x="197" y="901" type="line"/>
      <point x="772" y="1153" type="line"/>
      <point x="738" y="1216" type="line"/>
      <point x="163" y="966" type="line"/>
    </contour>
  </outline>
</glyph>
<glyph name="kgreenlandic" format="1">
  <advance width="998"/>
  <unicode hex="0138"/>
  <outline>
    <contour>
      <point x="750" y="0" type="line"/>
      <point x="956" y="0" type="line"/>
      <point x="956" y="71" type="line"/>
      <point x="796" y="71" type="line"/>
      <point x="441" y="408" type="line"/>
      <point x="808" y="733" type="line"/>
      <point x="949" y="733" type="line"/>
      <point x="949" y="804" type="line"/>
      <point x="550" y="804" type="line"/>
      <point x="550" y="733" type="line"/>
      <point x="695" y="733" type="line"/>
      <point x="324" y="404" type="line"/>
    </contour>
    <contour>
      <point x="75" y="0" type="line"/>
      <point x="445" y="0" type="line"/>
      <point x="445" y="71" type="line"/>
      <point x="316" y="71" type="line"/>
      <point x="316" y="804" type="line"/>
      <point x="80" y="804" type="line"/>
      <point x="80" y="733" type="line"/>
      <point x="219" y="733" type="line"/>
      <point x="219" y="71" type="line"/>
      <point x="75" y="71" type="line"/>
    </contour>
  </outline>
</glyph>
<glyph name="Eng" format="1">
  <advance width="1442"/>
  <unicode hex="014A"/>
  <outline>
    <contour>
      <point x="936" y="1152" type="line"/>
      <point x="936" y="1044" type="line"/>
      <point x="1100" y="1044" type="line"/>
      <point x="1100" y="221" type="line"/>
      <point x="441" y="1152" type="line"/>
      <point x="83" y="1152" type="line"/>
      <point x="83" y="1044" type="line"/>
      <point x="247" y="1044" type="line"/>
      <point x="247" y="109" type="line"/>
      <point x="83" y="109" type="line"/>
      <point x="83" y="0" type="line"/>
      <point x="538" y="0" type="line"/>
      <point x="538" y="109" type="line"/>
      <point x="374" y="109" type="line"/>
      <point x="374" y="982" type="line"/>
      <point x="1100" y="-28" type="line"/>
      <point x="1101" y="-190"/>
      <point x="1000" y="-267"/>
      <point x="804" y="-267" type="curve"/>
      <point x="804" y="-377" type="line"/>
      <point x="1041" y="-377"/>
      <point x="1228" y="-285"/>
      <point x="1228" y="-22" type="curve" smooth="yes"/>
      <point x="1228" y="1044" type="line"/>
      <point x="1389" y="1044" type="line"/>
      <point x="1389" y="1152" type="line"/>
    </contour>
  </outline>
</glyph>
<glyph name="eng" format="1">
  <advance width="1033"/>
  <unicode hex="014B"/>
  <outline>
    <contour>
      <point x="480" y="-350" type="line"/>
      <point x="716" y="-350"/>
      <point x="878" y="-247"/>
      <point x="878" y="6" type="curve" smooth="yes"/>
      <point x="878" y="569" type="line" smooth="yes"/>
      <point x="878" y="731"/>
      <point x="772" y="826"/>
      <point x="625" y="826" type="curve" smooth="yes"/>
      <point x="512" y="826"/>
      <point x="375" y="763"/>
      <point x="250" y="678" type="curve"/>
      <point x="250" y="607" type="line"/>
      <point x="373" y="688"/>
      <point x="510" y="748"/>
      <point x="602" y="748" type="curve" smooth="yes"/>
      <point x="712" y="748"/>
      <point x="781" y="681"/>
      <point x="781" y="567" type="curve" smooth="yes"/>
      <point x="781" y="-6" type="line" smooth="yes"/>
      <point x="781" y="-182"/>
      <point x="688" y="-278"/>
      <point x="482" y="-278" type="curve"/>
    </contour>
    <component base="lc_xheight_stem" xOffset="-68"/>
  </outline>
</glyph>
<glyph name="apostrophemod" format="1">
  <advance width="600"/>
  <unicode hex="02BC"/>
  <outline>
    <contour>
      <point x="89" y="804" type="move" name="_top"/>
    </contour>
    <contour>
      <point x="59" y="915" type="line"/>
      <point x="168" y="915"/>
      <point x="205" y="988"/>
      <point x="204" y="1088" type="curve"/>
      <point x="205" y="1231" type="line"/>
      <point x="66" y="1231" type="line"/>
      <point x="66" y="1092" type="line"/>
      <point x="146" y="1092" type="line"/>
      <point x="146" y="992"/>
      <point x="122" y="967"/>
      <point x="59" y="957" type="curve"/>
    </contour>
  </outline>
</glyph>
<glyph name="circumflex" format="1">
  <advance width="442"/>
  <unicode hex="02C6"/>
  <outline>
    <contour>
      <point x="224" y="804" type="move" name="_top"/>
    </contour>
    <contour>
      <point x="75" y="924" type="line"/>
      <point x="219" y="1186" type="line"/>
      <point x="361" y="924" type="line"/>
      <point x="437" y="924" type="line"/>
      <point x="265" y="1238" type="line"/>
      <point x="172" y="1238" type="line"/>
      <point x="0" y="924" type="line"/>
    </contour>
  </outline>
</glyph>
<glyph name="ring" format="1">
  <advance width="381"/>
  <unicode hex="02DA"/>
  <outline>
    <contour>
      <point x="188" y="804" type="move" name="_top"/>
    </contour>
    <contour>
      <point x="189" y="882" type="curve" smooth="yes"/>
      <point x="275" y="882"/>
      <point x="325" y="937"/>
      <point x="325" y="1015" type="curve" smooth="yes"/>
      <point x="325" y="1091"/>
      <point x="275" y="1144"/>
      <point x="188" y="1144" type="curve" smooth="yes"/>
      <point x="101" y="1144"/>
      <point x="51" y="1091"/>
      <point x="50" y="1015" type="curve" smooth="yes"/>
      <point x="51" y="937"/>
      <point x="102" y="882"/>
    </contour>
    <contour>
      <point x="189" y="927" type="curve" smooth="yes"/>
      <point x="134" y="927"/>
      <point x="102" y="963"/>
      <point x="102" y="1014" type="curve" smooth="yes"/>
      <point x="102" y="1064"/>
      <point x="134" y="1099"/>
      <point x="189" y="1099" type="curve" smooth="yes"/>
      <point x="242" y="1099"/>
      <point x="274" y="1064"/>
      <point x="274" y="1014" type="curve" smooth="yes"/>
      <point x="274" y="963"/>
      <point x="242" y="927"/>
    </contour>
  </outline>
</glyph>
<glyph name="hungarumlaut" format="1">
  <advance width="496"/>
  <unicode hex="02DD"/>
  <outline>
    <contour>
      <point x="188" y="804" type="move" name="_top"/>
    </contour>
    <contour>
      <point x="406" y="1287" type="line"/>
      <point x="294" y="983" type="line"/>
      <point x="353" y="983" type="line"/>
      <point x="512" y="1287" type="line"/>
    </contour>
    <contour>
      <point x="177" y="1287" type="line"/>
      <point x="65" y="983" type="line"/>
      <point x="124" y="983" type="line"/>
      <point x="283" y="1287" type="line"/>
    </contour>
  </outline>
</glyph>
<glyph name="uni0307" format="1">
  <advance width="410"/>
  <unicode hex="0307"/>
  <outline>
    <contour>
      <point x="206" y="805" type="move" name="_top"/>
    </contour>
    <contour>
      <point x="204" y="960" type="curve" smooth="yes"/>
      <point x="255" y="960"/>
      <point x="281" y="997"/>
      <point x="281" y="1032" type="curve" smooth="yes"/>
      <point x="281" y="1070"/>
      <point x="253" y="1103"/>
      <point x="204" y="1103" type="curve" smooth="yes"/>
      <point x="156" y="1103"/>
      <point x="129" y="1069"/>
      <point x="128" y="1032" type="curve" smooth="yes"/>
      <point x="128" y="997"/>
      <point x="156" y="960"/>
    </contour>
  </outline>
</glyph>
<glyph name="breveinvertedcomb" format="1">
  <advance width="830"/>
  <unicode hex="0311"/>
  <outline>
    <contour>
      <point x="418" y="820" type="move" name="_top"/>
    </contour>
    <contour>
      <point x="229" y="943" type="curve"/>
      <point x="304" y="943" type="line"/>
      <point x="320" y="1008"/>
      <point x="357" y="1041"/>
      <point x="416" y="1041" type="curve" smooth="yes"/>
      <point x="473" y="1041"/>
      <point x="511" y="1008"/>
      <point x="526" y="943" type="curve"/>
      <point x="602" y="943" type="line"/>
      <point x="587" y="1052"/>
      <point x="520" y="1116"/>
      <point x="416" y="1115" type="curve" smooth="yes"/>
      <point x="315" y="1116"/>
      <point x="246" y="1053"/>
    </contour>
  </outline>
</glyph>
<glyph name="uni0312" format="1">
  <advance width="600"/>
  <unicode hex="0312"/>
  <outline>
    <contour>
      <point x="191" y="804" type="move" name="_top"/>
    </contour>
    <contour>
      <point x="329" y="910" type="line"/>
      <point x="329" y="1093" type="line"/>
      <point x="218" y="1093" type="line"/>
      <point x="218" y="1180"/>
      <point x="256" y="1209"/>
      <point x="332" y="1223" type="curve"/>
      <point x="332" y="1290" type="line"/>
      <point x="196" y="1290"/>
      <point x="133" y="1216"/>
      <point x="134" y="1095" type="curve" smooth="yes"/>
      <point x="134" y="911" type="line"/>
    </contour>
  </outline>
</glyph>
<glyph name="uni0326" format="1">
  <advance width="545"/>
  <unicode hex="0326"/>
  <outline>
    <contour>
      <point x="298" y="0" type="move" name="_bot"/>
    </contour>
    <contour>
      <point x="198" y="-487" type="line"/>
      <point x="336" y="-488"/>
      <point x="398" y="-411"/>
      <point x="398" y="-289" type="curve" smooth="yes"/>
      <point x="398" y="-106" type="line"/>
      <point x="202" y="-106" type="line"/>
      <point x="202" y="-284" type="line"/>
      <point x="313" y="-284" type="line"/>
      <point x="313" y="-364"/>
      <point x="279" y="-407"/>
      <point x="198" y="-421" type="curve"/>
    </contour>
  </outline>
</glyph>
<glyph name="uni0358" format="1">
  <advance width="414"/>
  <unicode hex="0358"/>
  <outline>
    <contour>
      <point x="186" y="804" type="move" name="_top"/>
    </contour>
    <contour>
      <point x="192" y="982" type="curve" smooth="yes"/>
      <point x="255" y="982"/>
      <point x="303" y="1027"/>
      <point x="303" y="1086" type="curve" smooth="yes"/>
      <point x="303" y="1144"/>
      <point x="255" y="1190"/>
      <point x="192" y="1190" type="curve" smooth="yes"/>
      <point x="131" y="1190"/>
      <point x="82" y="1144"/>
      <point x="82" y="1086" type="curve" smooth="yes"/>
      <point x="82" y="1027"/>
      <point x="131" y="982"/>
    </contour>
  </outline>
</glyph>
<glyph name="Delta" format="1">
  <advance width="1167"/>
  <unicode hex="0394"/>
  <outline>
    <contour>
      <point x="84" y="0" type="line"/>
      <point x="1083" y="0" type="line"/>
      <point x="1083" y="46" type="line"/>
      <point x="618" y="1152" type="line"/>
      <point x="525" y="1152" type="line"/>
      <point x="84" y="46" type="line"/>
    </contour>
    <contour>
      <point x="178" y="73" type="line"/>
      <point x="561" y="1054" type="line"/>
      <point x="967" y="73" type="line"/>
    </contour>
  </outline>
</glyph>
<glyph name="Omega" format="1">
  <advance width="1426"/>
  <unicode hex="03A9"/>
  <outline>
    <contour>
      <point x="160" y="0" type="line"/>
      <point x="579" y="0" type="line"/>
      <point x="579" y="72" type="line"/>
      <point x="358" y="194"/>
      <point x="253" y="422"/>
      <point x="253" y="628" type="curve" smooth="yes"/>
      <point x="253" y="873"/>
      <point x="407" y="1094"/>
      <point x="713" y="1094" type="curve" smooth="yes"/>
      <point x="1018" y="1094"/>
      <point x="1173" y="872"/>
      <point x="1173" y="627" type="curve" smooth="yes"/>
      <point x="1173" y="422"/>
      <point x="1068" y="194"/>
      <point x="847" y="72" type="curve"/>
      <point x="847" y="0" type="line"/>
      <point x="1266" y="0" type="line"/>
      <point x="1266" y="71" type="line"/>
      <point x="958" y="71" type="line"/>
      <point x="1175" y="201"/>
      <point x="1279" y="421"/>
      <point x="1279" y="626" type="curve" smooth="yes"/>
      <point x="1279" y="909"/>
      <point x="1079" y="1174"/>
      <point x="713" y="1174" type="curve" smooth="yes"/>
      <point x="348" y="1174"/>
      <point x="148" y="909"/>
      <point x="148" y="625" type="curve" smooth="yes"/>
      <point x="148" y="421"/>
      <point x="251" y="201"/>
      <point x="469" y="71" type="curve"/>
      <point x="160" y="71" type="line"/>
    </contour>
  </outline>
</glyph>
<glyph name="mu" format="1">
  <advance width="1035"/>
  <unicode hex="03BC"/>
  <outline>
    <component base="u"/>
    <contour>
      <point x="179" y="-295" type="line"/>
      <point x="276" y="-295" type="line"/>
      <point x="276" y="391" type="line"/>
      <point x="179" y="391" type="line"/>
    </contour>
  </outline>
</glyph>
<glyph name="pi" format="1">
  <advance width="1138"/>
  <unicode hex="03C0"/>
  <outline>
    <contour>
      <point x="900" y="-13" type="curve" smooth="yes"/>
      <point x="936" y="-13"/>
      <point x="982" y="-2"/>
      <point x="1020" y="16" type="curve"/>
      <point x="1020" y="71" type="line"/>
      <point x="989" y="61"/>
      <point x="961" y="56"/>
      <point x="936" y="56" type="curve" smooth="yes"/>
      <point x="850" y="56"/>
      <point x="802" y="116"/>
      <point x="802" y="240" type="curve" smooth="yes"/>
      <point x="802" y="337"/>
      <point x="836" y="543"/>
      <point x="867" y="711" type="curve"/>
      <point x="1044" y="711" type="line"/>
      <point x="1044" y="804" type="line"/>
      <point x="326" y="804" type="line" smooth="yes"/>
      <point x="199" y="804"/>
      <point x="156" y="703"/>
      <point x="156" y="588" type="curve"/>
      <point x="210" y="588" type="line"/>
      <point x="213" y="676"/>
      <point x="248" y="711"/>
      <point x="303" y="711" type="curve" smooth="yes"/>
      <point x="392" y="711" type="line"/>
      <point x="324" y="257" type="line" smooth="yes"/>
      <point x="302" y="112"/>
      <point x="258" y="48"/>
      <point x="133" y="48" type="curve"/>
      <point x="133" y="-3" type="line"/>
      <point x="349" y="-3"/>
      <point x="399" y="65"/>
      <point x="416" y="239" type="curve" smooth="yes"/>
      <point x="463" y="711" type="line"/>
      <point x="806" y="711" type="line"/>
      <point x="762" y="557"/>
      <point x="710" y="345"/>
      <point x="710" y="223" type="curve" smooth="yes"/>
      <point x="710" y="67"/>
      <point x="771" y="-13"/>
    </contour>
  </outline>
</glyph>
<glyph name="endash" format="1">
  <advance width="730"/>
  <unicode hex="2013"/>
  <outline>
    <contour>
      <point x="0" y="446" type="line"/>
      <point x="730" y="446" type="line"/>
      <point x="730" y="514" type="line"/>
      <point x="0" y="514" type="line"/>
    </contour>
  </outline>
</glyph>
<glyph name="emdash" format="1">
  <advance width="1145"/>
  <unicode hex="2014"/>
  <outline>
    <contour>
      <point x="0" y="453" type="line"/>
      <point x="1145" y="453" type="line"/>
      <point x="1145" y="521" type="line"/>
      <point x="0" y="521" type="line"/>
    </contour>
  </outline>
</glyph>
<glyph name="uni2015" format="1">
  <advance width="1206"/>
  <unicode hex="2015"/>
  <outline>
    <contour>
      <point x="0" y="453" type="line"/>
      <point x="1206" y="453" type="line"/>
      <point x="1206" y="551" type="line"/>
      <point x="0" y="551" type="line"/>
    </contour>
  </outline>
</glyph>
<glyph name="quotedblleft" format="1">
  <advance width="713"/>
  <unicode hex="201C"/>
  <outline>
    <contour>
      <point x="168" y="960" type="line"/>
      <point x="298" y="960" type="line"/>
      <point x="298" y="1090" type="line"/>
      <point x="238" y="1090" type="line"/>
      <point x="239" y="1172"/>
      <point x="245" y="1197"/>
      <point x="308" y="1218" type="curve"/>
      <point x="308" y="1269" type="line"/>
      <point x="202" y="1268"/>
      <point x="168" y="1191"/>
      <point x="168" y="1091" type="curve" smooth="yes"/>
    </contour>
    <contour>
      <point x="394" y="960" type="line"/>
      <point x="523" y="960" type="line"/>
      <point x="523" y="1090" type="line"/>
      <point x="465" y="1090" type="line"/>
      <point x="465" y="1172"/>
      <point x="471" y="1197"/>
      <point x="534" y="1218" type="curve"/>
      <point x="534" y="1269" type="line"/>
      <point x="428" y="1268"/>
      <point x="394" y="1191"/>
      <point x="394" y="1091" type="curve" smooth="yes"/>
    </contour>
  </outline>
</glyph>
<glyph name="quotedblright" format="1">
  <advance width="714"/>
  <unicode hex="201D"/>
  <outline>
    <contour>
      <point x="185" y="938" type="line"/>
      <point x="291" y="940"/>
      <point x="324" y="1018"/>
      <point x="324" y="1117" type="curve" smooth="yes"/>
      <point x="324" y="1248" type="line"/>
      <point x="195" y="1248" type="line"/>
      <point x="195" y="1119" type="line"/>
      <point x="255" y="1119" type="line"/>
      <point x="253" y="1037"/>
      <point x="248" y="1010"/>
      <point x="185" y="990" type="curve"/>
    </contour>
    <contour>
      <point x="408" y="938" type="line"/>
      <point x="515" y="940"/>
      <point x="548" y="1018"/>
      <point x="548" y="1117" type="curve" smooth="yes"/>
      <point x="548" y="1248" type="line"/>
      <point x="419" y="1248" type="line"/>
      <point x="419" y="1119" type="line"/>
      <point x="478" y="1119" type="line"/>
      <point x="477" y="1037"/>
      <point x="472" y="1010"/>
      <point x="408" y="990" type="curve"/>
    </contour>
  </outline>
</glyph>
<glyph name="quotedblbase" format="1">
  <advance width="824"/>
  <unicode hex="201E"/>
  <outline>
    <contour>
      <point x="179" y="-218" type="line"/>
      <point x="311" y="-216"/>
      <point x="354" y="-134"/>
      <point x="354" y="-9" type="curve" smooth="yes"/>
      <point x="354" y="166" type="line"/>
      <point x="185" y="166" type="line"/>
      <point x="185" y="-10" type="line"/>
      <point x="263" y="-10" type="line"/>
      <point x="262" y="-96"/>
      <point x="246" y="-125"/>
      <point x="179" y="-142" type="curve"/>
    </contour>
    <contour>
      <point x="488" y="-218" type="line"/>
      <point x="620" y="-216"/>
      <point x="663" y="-134"/>
      <point x="663" y="-9" type="curve" smooth="yes"/>
      <point x="663" y="166" type="line"/>
      <point x="494" y="166" type="line"/>
      <point x="494" y="-10" type="line"/>
      <point x="572" y="-10" type="line"/>
      <point x="571" y="-97"/>
      <point x="556" y="-125"/>
      <point x="488" y="-142" type="curve"/>
    </contour>
  </outline>
</glyph>
<glyph name="bullet" format="1">
  <advance width="695"/>
  <unicode hex="2022"/>
  <outline>
    <contour>
      <point x="348" y="436" type="curve" smooth="yes"/>
      <point x="479" y="436"/>
      <point x="585" y="538"/>
      <point x="585" y="664" type="curve" smooth="yes"/>
      <point x="585" y="792"/>
      <point x="479" y="891"/>
      <point x="348" y="891" type="curve" smooth="yes"/>
      <point x="215" y="891"/>
      <point x="111" y="792"/>
      <point x="111" y="664" type="curve" smooth="yes"/>
      <point x="111" y="539"/>
      <point x="215" y="436"/>
    </contour>
  </outline>
</glyph>
<glyph name="perthousand" format="1">
  <advance width="2343"/>
  <unicode hex="2030"/>
  <outline>
    <component base="percent"/>
    <contour>
      <point x="1960" y="-22" type="curve" smooth="yes"/>
      <point x="2130" y="-22"/>
      <point x="2253" y="96"/>
      <point x="2253" y="260" type="curve" smooth="yes"/>
      <point x="2253" y="420"/>
      <point x="2130" y="537"/>
      <point x="1960" y="537" type="curve" smooth="yes"/>
      <point x="1792" y="537"/>
      <point x="1670" y="420"/>
      <point x="1670" y="260" type="curve" smooth="yes"/>
      <point x="1670" y="96"/>
      <point x="1792" y="-22"/>
    </contour>
    <contour>
      <point x="1960" y="41" type="curve" smooth="yes"/>
      <point x="1835" y="41"/>
      <point x="1745" y="133"/>
      <point x="1745" y="260" type="curve" smooth="yes"/>
      <point x="1745" y="385"/>
      <point x="1835" y="476"/>
      <point x="1960" y="476" type="curve" smooth="yes"/>
      <point x="2087" y="476"/>
      <point x="2178" y="385"/>
      <point x="2178" y="260" type="curve" smooth="yes"/>
      <point x="2178" y="133"/>
      <point x="2087" y="41"/>
    </contour>
  </outline>
</glyph>
<glyph name="guilsinglleft" format="1">
  <advance width="555"/>
  <unicode hex="2039"/>
  <outline>
    <contour>
      <point x="319" y="193" type="line"/>
      <point x="429" y="193" type="line"/>
      <point x="220" y="593" type="line"/>
      <point x="429" y="992" type="line"/>
      <point x="319" y="992" type="line"/>
      <point x="21" y="592" type="line"/>
    </contour>
  </outline>
</glyph>
<glyph name="guilsinglright" format="1">
  <advance width="480"/>
  <unicode hex="203A"/>
  <outline>
    <contour>
      <point x="116" y="251" type="line"/>
      <point x="185" y="251" type="line"/>
      <point x="467" y="640" type="line"/>
      <point x="185" y="1025" type="line"/>
      <point x="116" y="1025" type="line"/>
      <point x="327" y="639" type="line"/>
    </contour>
  </outline>
</glyph>
<glyph name="fraction" format="1">
  <advance width="467"/>
  <unicode hex="2044"/>
  <outline>
    <contour>
      <point x="-68" y="-34" type="line"/>
      <point x="13" y="-34" type="line"/>
      <point x="523" y="1276" type="line"/>
      <point x="447" y="1276" type="line"/>
    </contour>
  </outline>
</glyph>
<glyph name="uni2113" format="1">
  <advance width="648"/>
  <unicode hex="2113"/>
  <outline>
    <contour>
      <point x="511" y="-9" type="curve"/>
      <point x="529" y="98" type="line"/>
      <point x="360" y="98"/>
      <point x="322" y="126"/>
      <point x="350" y="309" type="curve" smooth="yes"/>
      <point x="492" y="1215" type="line"/>
      <point x="181" y="1215" type="line"/>
      <point x="166" y="1106" type="line"/>
      <point x="327" y="1106" type="line"/>
      <point x="193" y="266" type="line" smooth="yes"/>
      <point x="158" y="47"/>
      <point x="275" y="-11"/>
    </contour>
  </outline>
</glyph>
<glyph name="estimated" format="1">
  <advance width="963"/>
  <unicode hex="212E"/>
  <outline>
    <contour>
      <point x="572" y="-18" type="curve" smooth="yes"/>
      <point x="710" y="-18"/>
      <point x="842" y="35"/>
      <point x="944" y="124" type="curve"/>
      <point x="918" y="155" type="line"/>
      <point x="816" y="76"/>
      <point x="707" y="34"/>
      <point x="602" y="37" type="curve" smooth="yes"/>
      <point x="428" y="42"/>
      <point x="309" y="180"/>
      <point x="295" y="399" type="curve"/>
      <point x="938" y="399" type="line"/>
      <point x="938" y="664"/>
      <point x="815" y="824"/>
      <point x="555" y="824" type="curve" smooth="yes"/>
      <point x="298" y="824"/>
      <point x="126" y="668"/>
      <point x="126" y="415" type="curve" smooth="yes"/>
      <point x="126" y="135"/>
      <point x="333" y="-19"/>
    </contour>
    <contour>
      <point x="297" y="452" type="line"/>
      <point x="302" y="668"/>
      <point x="432" y="795"/>
      <point x="578" y="794" type="curve" smooth="yes"/>
      <point x="716" y="793"/>
      <point x="842" y="671"/>
      <point x="845" y="452" type="curve"/>
    </contour>
  </outline>
</glyph>
<glyph name="partialdiff" format="1">
  <advance width="1014"/>
  <unicode hex="2202"/>
  <outline>
    <contour>
      <point x="401" y="-21" type="curve" smooth="yes"/>
      <point x="743" y="-21"/>
      <point x="859" y="365"/>
      <point x="859" y="659" type="curve" smooth="yes"/>
      <point x="859" y="985"/>
      <point x="738" y="1189"/>
      <point x="496" y="1189" type="curve" smooth="yes"/>
      <point x="348" y="1189"/>
      <point x="256" y="1124"/>
      <point x="256" y="1032" type="curve" smooth="yes"/>
      <point x="256" y="983"/>
      <point x="285" y="958"/>
      <point x="342" y="958" type="curve"/>
      <point x="342" y="1068"/>
      <point x="421" y="1130"/>
      <point x="530" y="1130" type="curve" smooth="yes"/>
      <point x="699" y="1130"/>
      <point x="812" y="922"/>
      <point x="803" y="556" type="curve"/>
      <point x="817" y="561" type="line"/>
      <point x="797" y="637"/>
      <point x="710" y="717"/>
      <point x="561" y="717" type="curve" smooth="yes"/>
      <point x="251" y="717"/>
      <point x="130" y="426"/>
      <point x="130" y="250" type="curve" smooth="yes"/>
      <point x="130" y="108"/>
      <point x="198" y="-21"/>
    </contour>
    <contour>
      <point x="439" y="38" type="curve" smooth="yes"/>
      <point x="296" y="38"/>
      <point x="246" y="133"/>
      <point x="246" y="246" type="curve" smooth="yes"/>
      <point x="246" y="389"/>
      <point x="332" y="660"/>
      <point x="581" y="660" type="curve" smooth="yes"/>
      <point x="697" y="660"/>
      <point x="772" y="607"/>
      <point x="795" y="515" type="curve"/>
      <point x="768" y="277"/>
      <point x="639" y="38"/>
    </contour>
  </outline>
</glyph>
<glyph name="Delta" format="1">
  <advance width="1014"/>
  <unicode hex="2206"/>
  <outline>
    <contour>
      <point x="76" y="0" type="line"/>
      <point x="943" y="0" type="line"/>
      <point x="943" y="96" type="line"/>
      <point x="598" y="1115" type="line"/>
      <point x="431" y="1115" type="line"/>
      <point x="76" y="89" type="line"/>
    </contour>
    <contour>
      <point x="187" y="105" type="line"/>
      <point x="187" y="105"/>
      <point x="461" y="930"/>
      <point x="473" y="986" type="curve"/>
      <point x="485" y="930"/>
      <point x="756" y="105"/>
      <point x="756" y="105" type="curve"/>
    </contour>
  </outline>
</glyph>
<glyph name="product" format="1">
  <advance width="1365"/>
  <unicode hex="220F"/>
  <outline>
    <contour>
      <point x="117" y="0" type="line"/>
      <point x="522" y="0" type="line"/>
      <point x="522" y="73" type="line"/>
      <point x="371" y="73" type="line"/>
      <point x="371" y="1080" type="line"/>
      <point x="994" y="1080" type="line"/>
      <point x="994" y="73" type="line"/>
      <point x="844" y="73" type="line"/>
      <point x="844" y="0" type="line"/>
      <point x="1248" y="0" type="line"/>
      <point x="1248" y="73" type="line"/>
      <point x="1098" y="73" type="line"/>
      <point x="1098" y="1080" type="line"/>
      <point x="1248" y="1080" type="line"/>
      <point x="1248" y="1152" type="line"/>
      <point x="117" y="1152" type="line"/>
      <point x="117" y="1080" type="line"/>
      <point x="268" y="1080" type="line"/>
      <point x="268" y="73" type="line"/>
      <point x="117" y="73" type="line"/>
    </contour>
  </outline>
</glyph>
<glyph name="summation" format="1">
  <advance width="1283"/>
  <unicode hex="2211"/>
  <outline>
    <contour>
      <point x="125" y="0" type="line"/>
      <point x="1121" y="0" type="line"/>
      <point x="1121" y="357" type="line"/>
      <point x="993" y="357" type="line"/>
      <point x="993" y="109" type="line"/>
      <point x="395" y="109" type="line"/>
      <point x="770" y="565" type="line"/>
      <point x="770" y="622" type="line"/>
      <point x="438" y="1044" type="line"/>
      <point x="983" y="1044" type="line"/>
      <point x="983" y="802" type="line"/>
      <point x="1111" y="802" type="line"/>
      <point x="1111" y="1152" type="line"/>
      <point x="125" y="1152" type="line"/>
      <point x="125" y="1044" type="line"/>
      <point x="280" y="1044" type="line"/>
      <point x="649" y="571" type="line"/>
      <point x="277" y="109" type="line"/>
      <point x="125" y="109" type="line"/>
    </contour>
  </outline>
</glyph>
<glyph name="radical" format="1">
  <advance width="1137"/>
  <unicode hex="221A"/>
  <outline>
    <contour>
      <point x="487" y="-14" type="line"/>
      <point x="555" y="-14" type="line"/>
      <point x="1012" y="1363" type="line"/>
      <point x="942" y="1363" type="line"/>
      <point x="529" y="117" type="line"/>
      <point x="300" y="646" type="line"/>
      <point x="38" y="646" type="line"/>
      <point x="38" y="580" type="line"/>
      <point x="219" y="580" type="line"/>
    </contour>
  </outline>
</glyph>
<glyph name="integral" format="1">
  <advance width="724"/>
  <unicode hex="222B"/>
  <outline>
    <contour>
      <point x="752.104" y="1115.95" type="curve" smooth="yes"/>
      <point x="752.104" y="1171.39"/>
      <point x="688.442" y="1208.03"/>
      <point x="606.334" y="1208.03" type="curve" smooth="yes"/>
      <point x="464.538" y="1208.03"/>
      <point x="397.795" y="1117.64"/>
      <point x="379" y="993" type="curve" smooth="yes"/>
      <point x="228" y="39" type="line"/>
      <point x="211" y="-80"/>
      <point x="182" y="-127"/>
      <point x="125" y="-127" type="curve" smooth="yes"/>
      <point x="77" y="-127"/>
      <point x="52" y="-88"/>
      <point x="53" y="-11" type="curve"/>
      <point x="-13.324" y="-11"/>
      <point x="-36.1094" y="-45.5785"/>
      <point x="-36.1094" y="-80.1396" type="curve" smooth="yes"/>
      <point x="-36.1094" y="-135.069"/>
      <point x="22.119" y="-176"/>
      <point x="107" y="-176" type="curve"/>
      <point x="260" y="-176"/>
      <point x="303" y="-66"/>
      <point x="321" y="56" type="curve"/>
      <point x="471" y="993" type="line"/>
      <point x="489.32" y="1119.31"/>
      <point x="530.884" y="1159.16"/>
      <point x="586.726" y="1159.16" type="curve" smooth="yes"/>
      <point x="640.367" y="1159.16"/>
      <point x="663" y="1117.97"/>
      <point x="663" y="1046" type="curve"/>
      <point x="729.189" y="1046"/>
      <point x="752.104" y="1080.59"/>
    </contour>
  </outline>
</glyph>
<glyph name="notequal" format="1">
  <advance width="916"/>
  <unicode hex="2260"/>
  <outline>
    <contour>
      <point x="325" y="57" type="line"/>
      <point x="397" y="57" type="line"/>
      <point x="446" y="249" type="line"/>
      <point x="826" y="249" type="line"/>
      <point x="826" y="316" type="line"/>
      <point x="464" y="316" type="line"/>
      <point x="524" y="539" type="line"/>
      <point x="816" y="539" type="line"/>
      <point x="816" y="610" type="line"/>
      <point x="542" y="610" type="line"/>
      <point x="594" y="800" type="line"/>
      <point x="525" y="800" type="line"/>
      <point x="473" y="610" type="line"/>
      <point x="94" y="610" type="line"/>
      <point x="94" y="539" type="line"/>
      <point x="453" y="539" type="line"/>
      <point x="394" y="316" type="line"/>
      <point x="104" y="316" type="line"/>
      <point x="104" y="249" type="line"/>
      <point x="375" y="249" type="line"/>
    </contour>
  </outline>
</glyph>
<glyph name="lessequal" format="1">
  <advance width="902"/>
  <unicode hex="2264"/>
  <outline>
    <contour>
      <point x="817" y="204" type="line"/>
      <point x="817" y="329" type="line"/>
      <point x="193" y="664" type="line"/>
      <point x="817" y="1002" type="line"/>
      <point x="817" y="1128" type="line"/>
      <point x="18" y="698" type="line"/>
      <point x="18" y="632" type="line"/>
    </contour>
    <contour>
      <point x="18" y="0" type="line"/>
      <point x="817" y="0" type="line"/>
      <point x="817" y="111" type="line"/>
      <point x="18" y="111" type="line"/>
    </contour>
  </outline>
</glyph>
<glyph name="lozenge" format="1">
  <advance width="1014"/>
  <unicode hex="25CA"/>
  <outline>
    <contour>
      <point x="478" y="-21" type="line"/>
      <point x="536" y="-21" type="line"/>
      <point x="974" y="615" type="line"/>
      <point x="536" y="1248" type="line"/>
      <point x="478" y="1248" type="line"/>
      <point x="39" y="614" type="line"/>
    </contour>
    <contour>
      <point x="510" y="61" type="line"/>
      <point x="150" y="615" type="line"/>
      <point x="510" y="1164" type="line"/>
      <point x="868" y="615" type="line"/>
    </contour>
  </outline>
</glyph>
<glyph name="uniFB01" format="1">
  <advance width="1169"/>
  <unicode hex="FB01"/>
  <outline>
    <contour>
      <point x="104" y="0" type="line"/>
      <point x="573" y="0" type="line"/>
      <point x="573" y="108" type="line"/>
      <point x="395" y="108" type="line"/>
      <point x="395" y="696" type="line"/>
      <point x="846" y="696" type="line"/>
      <point x="846" y="108" type="line"/>
      <point x="698" y="108" type="line"/>
      <point x="698" y="0" type="line"/>
      <point x="1134" y="0" type="line"/>
      <point x="1134" y="108" type="line"/>
      <point x="996" y="108" type="line"/>
      <point x="996" y="804" type="line"/>
      <point x="395" y="804" type="line"/>
      <point x="395" y="914" type="line" smooth="yes"/>
      <point x="395" y="1103"/>
      <point x="497" y="1177"/>
      <point x="650" y="1177" type="curve" smooth="yes"/>
      <point x="724" y="1177"/>
      <point x="808" y="1156"/>
      <point x="844" y="1117" type="curve"/>
      <point x="829" y="1104"/>
      <point x="821" y="1084"/>
      <point x="821" y="1064" type="curve" smooth="yes"/>
      <point x="821" y="1013"/>
      <point x="864" y="975"/>
      <point x="918" y="975" type="curve" smooth="yes"/>
      <point x="973" y="975"/>
      <point x="1014" y="1015"/>
      <point x="1014" y="1068" type="curve" smooth="yes"/>
      <point x="1014" y="1188"/>
      <point x="844" y="1266"/>
      <point x="650" y="1266" type="curve" smooth="yes"/>
      <point x="420" y="1266"/>
      <point x="243" y="1160"/>
      <point x="243" y="916" type="curve" smooth="yes"/>
      <point x="243" y="804" type="line"/>
      <point x="100" y="804" type="line"/>
      <point x="100" y="696" type="line"/>
      <point x="243" y="696" type="line"/>
      <point x="243" y="108" type="line"/>
      <point x="104" y="108" type="line"/>
    </contour>
  </outline>
</glyph>
<glyph name="ffl" format="1">
  <advance width="1791"/>
  <unicode hex="FB04"/>
  <outline>
    <component base="fl" xOffset="550"/>
    <contour>
      <point x="100" y="0" type="line"/>
      <point x="512" y="0" type="line"/>
      <point x="512" y="71" type="line"/>
      <point x="342" y="71" type="line"/>
      <point x="342" y="733" type="line"/>
      <point x="745" y="733" type="line"/>
      <point x="745" y="804" type="line"/>
      <point x="342" y="804" type="line"/>
      <point x="342" y="985" type="line" smooth="yes"/>
      <point x="342" y="1091"/>
      <point x="441" y="1149"/>
      <point x="584" y="1149" type="curve" smooth="yes"/>
      <point x="682" y="1149"/>
      <point x="803" y="1109"/>
      <point x="891" y="1047" type="curve"/>
      <point x="926" y="1101" type="line"/>
      <point x="827" y="1175"/>
      <point x="690" y="1219"/>
      <point x="573" y="1219" type="curve" smooth="yes"/>
      <point x="385" y="1219"/>
      <point x="244" y="1136"/>
      <point x="244" y="986" type="curve" smooth="yes"/>
      <point x="244" y="804" type="line"/>
      <point x="95" y="804" type="line"/>
      <point x="95" y="733" type="line"/>
      <point x="244" y="733" type="line"/>
      <point x="244" y="71" type="line"/>
      <point x="100" y="71" type="line"/>
    </contour>
  </outline>
</glyph>
<glyph name="uniFB04" format="1">
  <advance width="1907"/>
  <unicode hex="FB04"/>
  <outline>
    <contour>
      <point x="80" y="0" type="line"/>
      <point x="599" y="0" type="line"/>
      <point x="599" y="109" type="line"/>
      <point x="392" y="109" type="line"/>
      <point x="392" y="696" type="line"/>
      <point x="818" y="696" type="line"/>
      <point x="818" y="804" type="line"/>
      <point x="392" y="804" type="line"/>
      <point x="392" y="967" type="line" smooth="yes"/>
      <point x="392" y="1066"/>
      <point x="496" y="1117"/>
      <point x="628" y="1117" type="curve" smooth="yes"/>
      <point x="735" y="1117"/>
      <point x="858" y="1077"/>
      <point x="930" y="1005" type="curve"/>
      <point x="1044" y="1041" type="line"/>
      <point x="944" y="1169"/>
      <point x="771" y="1231"/>
      <point x="616" y="1231" type="curve" smooth="yes"/>
      <point x="411" y="1231"/>
      <point x="240" y="1136"/>
      <point x="240" y="967" type="curve" smooth="yes"/>
      <point x="240" y="804" type="line"/>
      <point x="82" y="804" type="line"/>
      <point x="82" y="696" type="line"/>
      <point x="240" y="696" type="line"/>
      <point x="240" y="109" type="line"/>
      <point x="80" y="109" type="line"/>
    </contour>
    <component base="uniFB02" xOffset="673"/>
  </outline>
</glyph>
<glyph name="fj" format="1">
  <advance width="1100"/>
  <outline>
    <contour>
      <point x="640" y="-276" type="line"/>
      <point x="720" y="-276" type="line" smooth="yes"/>
      <point x="955" y="-276"/>
      <point x="949" y="-130"/>
      <point x="949" y="-6" type="curve" smooth="yes"/>
      <point x="949" y="804" type="line"/>
      <point x="360" y="804" type="line"/>
      <point x="360" y="933" type="line" smooth="yes"/>
      <point x="360" y="1093"/>
      <point x="473" y="1171"/>
      <point x="647" y="1171" type="curve" smooth="yes"/>
      <point x="716" y="1171"/>
      <point x="809" y="1154"/>
      <point x="838" y="1109" type="curve"/>
      <point x="816" y="1100"/>
      <point x="807" y="1079"/>
      <point x="807" y="1058" type="curve" smooth="yes"/>
      <point x="807" y="1020"/>
      <point x="840" y="992"/>
      <point x="884" y="992" type="curve" smooth="yes"/>
      <point x="928" y="992"/>
      <point x="957" y="1023"/>
      <point x="957" y="1066" type="curve" smooth="yes"/>
      <point x="957" y="1168"/>
      <point x="823" y="1234"/>
      <point x="649" y="1234" type="curve" smooth="yes"/>
      <point x="422" y="1234"/>
      <point x="262" y="1133"/>
      <point x="262" y="933" type="curve" smooth="yes"/>
      <point x="262" y="804" type="line"/>
      <point x="104" y="804" type="line"/>
      <point x="104" y="733" type="line"/>
      <point x="262" y="733" type="line"/>
      <point x="262" y="71" type="line"/>
      <point x="109" y="71" type="line"/>
      <point x="109" y="0" type="line"/>
      <point x="550" y="0" type="line"/>
      <point x="550" y="71" type="line"/>
      <point x="360" y="71" type="line"/>
      <point x="360" y="733" type="line"/>
      <point x="849" y="733" type="line"/>
      <point x="849" y="-30" type="line" smooth="yes"/>
      <point x="849" y="-146"/>
      <point x="843" y="-200"/>
      <point x="714" y="-200" type="curve" smooth="yes"/>
      <point x="640" y="-200" type="line"/>
    </contour>
  </outline>
</glyph>
<glyph name="idotaccent" format="1">
  <advance width="581"/>
  <outline>
    <contour>
      <point x="109" y="0" type="line"/>
      <point x="535" y="0" type="line"/>
      <point x="535" y="71" type="line"/>
      <point x="375" y="71" type="line"/>
      <point x="375" y="635" type="line"/>
      <point x="375" y="804" type="line"/>
      <point x="111" y="804" type="line"/>
      <point x="111" y="733" type="line"/>
      <point x="278" y="733" type="line"/>
      <point x="278" y="71" type="line"/>
      <point x="109" y="71" type="line"/>
    </contour>
    <contour>
      <point x="308" y="1000" type="curve" smooth="yes"/>
      <point x="354" y="1000"/>
      <point x="387" y="1031"/>
      <point x="387" y="1074" type="curve" smooth="yes"/>
      <point x="387" y="1114"/>
      <point x="354" y="1146"/>
      <point x="308" y="1146" type="curve" smooth="yes"/>
      <point x="265" y="1146"/>
      <point x="232" y="1114"/>
      <point x="232" y="1074" type="curve" smooth="yes"/>
      <point x="232" y="1031"/>
      <point x="265" y="1000"/>
    </contour>
  </outline>
</glyph>
<glyph name="lc_descender_stem" format="1">
  <advance width="1197"/>
  <outline>
    <contour>
      <point x="90" y="-317" type="line"/>
      <point x="476" y="-317" type="line"/>
      <point x="476" y="-246" type="line"/>
      <point x="330" y="-246" type="line"/>
      <point x="331" y="650" type="line"/>
      <point x="326" y="804" type="line"/>
      <point x="101" y="804" type="line"/>
      <point x="101" y="733" type="line"/>
      <point x="233" y="733" type="line"/>
      <point x="233" y="-246" type="line"/>
      <point x="90" y="-246" type="line"/>
    </contour>
  </outline>
</glyph>
<glyph name="lc_xheight_curved_stem" format="1">
  <advance width="1175"/>
  <outline>
    <contour>
      <point x="711" y="0" type="line"/>
      <point x="1116" y="0" type="line"/>
      <point x="1116" y="71" type="line"/>
      <point x="965" y="71" type="line"/>
      <point x="965" y="569" type="line"/>
      <point x="965" y="731"/>
      <point x="859" y="826"/>
      <point x="711" y="826" type="curve" smooth="yes"/>
      <point x="599" y="826"/>
      <point x="462" y="763"/>
      <point x="337" y="678" type="curve"/>
      <point x="337" y="607" type="line"/>
      <point x="460" y="688"/>
      <point x="597" y="748"/>
      <point x="689" y="748" type="curve" smooth="yes"/>
      <point x="799" y="748"/>
      <point x="868" y="681"/>
      <point x="868" y="567" type="curve" smooth="yes"/>
      <point x="868" y="71" type="line"/>
      <point x="711" y="71" type="line"/>
    </contour>
  </outline>
</glyph>
<glyph name="uniFB04" format="1">
  <advance width="1763"/>
  <outline>
    <contour>
      <point x="91" y="0" type="line"/>
      <point x="503" y="0" type="line"/>
      <point x="503" y="71" type="line"/>
      <point x="333" y="71" type="line"/>
      <point x="333" y="733" type="line"/>
      <point x="736" y="733" type="line"/>
      <point x="736" y="804" type="line"/>
      <point x="333" y="804" type="line"/>
      <point x="333" y="985" type="line" smooth="yes"/>
      <point x="333" y="1091"/>
      <point x="432" y="1149"/>
      <point x="575" y="1149" type="curve" smooth="yes"/>
      <point x="673" y="1149"/>
      <point x="794" y="1109"/>
      <point x="882" y="1047" type="curve"/>
      <point x="917" y="1101" type="line"/>
      <point x="818" y="1175"/>
      <point x="681" y="1219"/>
      <point x="564" y="1219" type="curve" smooth="yes"/>
      <point x="376" y="1219"/>
      <point x="235" y="1136"/>
      <point x="235" y="986" type="curve" smooth="yes"/>
      <point x="235" y="804" type="line"/>
      <point x="86" y="804" type="line"/>
      <point x="86" y="733" type="line"/>
      <point x="235" y="733" type="line"/>
      <point x="235" y="71" type="line"/>
      <point x="91" y="71" type="line"/>
    </contour>
    <contour>
      <point x="650" y="0" type="line"/>
      <point x="1091" y="0" type="line"/>
      <point x="1091" y="71" type="line"/>
      <point x="901" y="71" type="line"/>
      <point x="901" y="733" type="line"/>
      <point x="1101" y="733" type="line"/>
      <point x="1101" y="804" type="line"/>
      <point x="901" y="804" type="line"/>
      <point x="901" y="960" type="line" smooth="yes"/>
      <point x="901" y="1093"/>
      <point x="1035" y="1169"/>
      <point x="1207" y="1169" type="curve" smooth="yes"/>
      <point x="1328" y="1169"/>
      <point x="1410" y="1141"/>
      <point x="1410" y="1098" type="curve" smooth="yes"/>
      <point x="1410" y="71" type="line" smooth="yes"/>
      <point x="1410" y="48"/>
      <point x="1429" y="0"/>
      <point x="1457" y="0" type="curve" smooth="yes"/>
      <point x="1694" y="0" type="line"/>
      <point x="1694" y="71" type="line"/>
      <point x="1508" y="71" type="line"/>
      <point x="1508" y="1114" type="line" smooth="yes"/>
      <point x="1508" y="1198"/>
      <point x="1383" y="1248"/>
      <point x="1211" y="1248" type="curve" smooth="yes"/>
      <point x="985" y="1248"/>
      <point x="803" y="1145"/>
      <point x="803" y="953" type="curve" smooth="yes"/>
      <point x="803" y="804" type="line"/>
      <point x="645" y="804" type="line"/>
      <point x="645" y="733" type="line"/>
      <point x="803" y="733" type="line"/>
      <point x="803" y="71" type="line"/>
      <point x="650" y="71" type="line"/>
    </contour>
  </outline>
</glyph>
